<svg xmlns="http://www.w3.org/2000/svg"
     viewBox="0 0 384.71 189.12"><defs><style>.bushes_cls-1{fill:#505c05;}</style></defs><g id="Layer_2"
                                                                                     data-name="Layer 2"><g
        id="Layer_1-2" data-name="Layer 1"><g id="_Layer_" data-name=" Layer "><path class="bushes_cls-1"
                                                                                     d="M384.71,189.12c-1.29-4.91-4.59-10.18-12.87-10.6-10.44-.53-15.46,5-17.65,8.85,3.09-7.38,9.19-24.24.51-24.24-5.83,0-13,7.37-18.42,14.37,1-9.31.69-19.26-3.72-23.68-7.38-7.4-12.42,12.61-14.23,21.49,2-11.24,6.73-42.7-.75-50.2-9.15-9.18-20,30-20,30s12.81-63.06,7.49-68.39-23.92,39.2-23.92,39.2,9.78-69.17,0-69.17-18.49,73.34-18.49,73.34-6.26-76.32-18.33-88.41,10.82,138.46,8.32,141c0,0-19.14-182.66-31.62-178.49-5.61,1.87-2.15,33.52,3.36,67.83-3.25-9.18-6.9-15.23-10.85-15.23C197.22,56.79,226.85,171,226.85,176s-16.64-93.41-33.29-86.42c-12,5,3.1,56.52,12.56,85.21a19.53,19.53,0,0,0-2.74-.34c-10.45-.53-15.47,5-17.65,8.84,3.08-7.38,9.17-24.24.5-24.24-5.83,0-13,7.38-18.42,14.37,1-9.3.69-19.25-3.72-23.67-7.39-7.4-12.42,12.6-14.23,21.49,2-11.24,6.73-42.7-.75-50.2-9.15-9.18-20,30-20,30S141.92,88,136.6,82.65s-23.92,39.2-23.92,39.2,9.77-69.17,0-69.17S94.19,126,94.19,126,87.92,49.7,75.86,37.61s10.81,138.45,8.32,141C84.18,178.56,65-4.1,52.56.07,47,2,50.41,33.6,55.92,67.9,52.66,58.73,49,52.68,45.07,52.68c-16.32,0,13.31,114.21,13.31,119.21S41.74,78.48,25.09,85.46c-5.71,2.39-5.26,15.37-2.21,31.4a13.49,13.49,0,0,0-7.27-3.76c-3.06-2.38-6.38-3.42-10-2.51-23.36,5.9,33.51,73,38.2,78.53Z"/></g></g></g></svg>
