<svg xmlns="http://www.w3.org/2000/svg" viewBox="0 0 294.16 869.6"><defs><style>.girl_cls-1{fill:#fd5e5a;}
    .girl_cls-2{fill:#1e2a18;}.girl_cls-3{fill:#fb8603;}.girl_cls-4{fill:#bc6502;opacity:0.49;}.girl_cls-24,.girl_cls-4{isolation:isolate;}.girl_cls-5{fill:#ffd078;}.girl_cls-6{fill:#e87605;}.girl_cls-7{fill:#0c143f;}.girl_cls-8{fill:#d04c72;}.girl_cls-9{fill:#ed9ab2;}.girl_cls-10{fill:#593960;}.girl_cls-11{fill:#432b48;}.girl_cls-12{fill:#3f5625;}.girl_cls-13,.girl_cls-24{fill:#ff8c2e;}.girl_cls-14{fill:#4d6330;}.girl_cls-15{fill:#fc7575;}.girl_cls-16{fill:#f88;}.girl_cls-17{fill:#18287d;}.girl_cls-18{fill:#2846a6;}.girl_cls-19{fill:#662d91;}.girl_cls-20{fill:#fbc802;}.girl_cls-21{fill:#112e1c;}.girl_cls-22{fill:#ffee4b;}.girl_cls-23{fill:#fbb03b;}.girl_cls-24{opacity:0.67;}.girl_cls-25{fill:#603813;}.girl_cls-26{fill:#a3a819;}.girl_cls-27{fill:#ff5;}.girl_cls-28{fill:#d9e021;}.girl_cls-29{fill:#e1e64d;}.girl_cls-30{fill:#592c07;}.girl_cls-31{fill:#a6e54c;}.girl_cls-32{fill:#7c3e11;}.girl_cls-33{fill:#db6812;}</style></defs><g id="Layer_2" data-name="Layer 2"><g id="Layer_1-2" data-name="Layer 1"><g id="Girl"><path class="girl_cls-1" d="M97,246.55c-1,1-13.18,28.75-18.12,64.42-5.27,38-3.32,84.1-3.32,84.1l21,2.38,7.28-77,15.48-59.31Z"/><path class="girl_cls-2" d="M258.67,298.44c-1.57-7.12-36.41,15.79-42.37,19.64,0,0,29.18,25.65,38.35,25.65S260.23,305.57,258.67,298.44Zm-5.37,35.35c-2.44,0-32.14-15.71-32.14-15.71s29.32-18.21,32.14-10.55S255.77,333.79,253.3,333.79Z"/><path class="girl_cls-2" d="M242.66,277.66c-4.39-7.1-23.5-7.33-23.5-7.33s-9.89-.64-9.89,5.13,7,42.67,7,42.67S247.05,284.72,242.66,277.66ZM216.3,315.8V275.74c2.83,0,17.93,3.16,19.54,4.81S216.3,315.8,216.3,315.8Z"/><path class="girl_cls-2" d="M280.7,481.66C279.4,447.14,245,352.93,216.3,318c31.62,32.92,73.62,125.59,77.86,162.52Z"/><path class="girl_cls-3" d="M279.91,63.72c0,34.63-42.41,62.69-94.72,62.69S90.47,98.35,90.47,63.72,132.88,1,185.19,1,279.91,29.09,279.91,63.72Z"/><path class="girl_cls-4" d="M227.1,7.48c9.78,9.86,15.46,21.66,15.46,34.34,0,34.62-42.41,62.69-94.72,62.69a135.5,135.5,0,0,1-41.91-6.45c16.92,17.08,46.1,28.35,79.26,28.35,52.31,0,94.72-28.06,94.72-62.69C279.91,39.05,258.39,17.71,227.1,7.48Z"/><path class="girl_cls-5" d="M90.47,63.72c-1.67-67.1,135-88,179.23-29.53,6.36,8.44,10.48,18.9,10.21,29.53A48.23,48.23,0,0,0,268.5,35.19C224.17-19.85,93.3-1.2,90.47,63.72Z"/><path class="girl_cls-6" d="M233.6,66.29c0,21.74-23.08,39.35-51.57,39.35S130.46,88,130.46,66.29,153.55,26.94,182,26.94,233.6,44.56,233.6,66.29Z"/><path class="girl_cls-7" d="M180.35,33.3s-19.23-2.43-24.4,9.38c-10.26,23.43-26.66,72.14-18.29,90.3s-4.74,26.91-4.74,26.91,54.53-18,65.75-9.8,28.79-2.35,28.79-2.35S212,129.94,216.73,97,198.67,28.83,180.35,33.3Z"/><path class="girl_cls-8" d="M135.82,148.56,68.58,254.33l52.31,10.54S148.52,166.36,135.82,148.56Z"/><path class="girl_cls-9" d="M220.54,151.44c-30.6-8.66-84.72-2.88-84.72-2.88C121,162,114.4,214.71,114.4,214.71l10.21,96.07L222,316.11l13.89-79.75C232.47,208.37,220.54,151.44,220.54,151.44Z"/><path class="girl_cls-10" d="M65.21,618.15s59.31,193.41,46.13,214.1-41.66,20.93-38.12,24.54,58.36-2.4,58.36-2.4S142.4,744.68,140.05,711s-16.94-92.85-16.94-92.85Z"/><path class="girl_cls-11" d="M123.11,618.15H65.21S69.76,633,76.07,654.89c15.6,2.8,35.28,5.89,56.88,8.27C128.3,639.09,123.11,618.15,123.11,618.15Z"/><polygon class="girl_cls-10" points="169.22 618.15 182.1 848.65 202.78 847.42 230.91 615.1 169.22 618.15"/><polygon class="girl_cls-11" points="230.91 615.1 169.22 618.15 171.66 661.82 226.38 652.44 230.91 615.1"/><path class="girl_cls-12" d="M256.12,437.36c-6.59-46.19-25-95.75-30.59-119.32s-14.09-116.82-8.48-141.83l-17.17.5s0,32.23-8.72,41.13-21.65,8.66-38.12,4.33-6.59-44.45-6.59-44.45l-12.71-3.43C105.55,286.17,133.59,287.6,121,331c-13.77,47.67-92.25,295.9-92.25,295.9,97.43,42.34,235.35,6.73,235.35,6.73S262.71,483.55,256.12,437.36Z"/><path class="girl_cls-13" d="M.06,546.11c-.89-14,7.58-30.6,14.36-43a100.63,100.63,0,0,1,28.21-31.06c11.27-8.4,24.22-14.19,37.51-18.22a139.17,139.17,0,0,1,82.17,0c13.29,4,26.23,9.82,37.5,18.22A100.27,100.27,0,0,1,228,503.11c6.79,12.39,12.45,29.54,11.56,43.56l-10.78-2.91a68.09,68.09,0,0,0-10.14-35A89.13,89.13,0,0,0,192.94,482c-20.75-14.36-46.36-21.17-71.72-21.33-25.35.16-51,7-71.71,21.33a89.37,89.37,0,0,0-25.72,26.81c-6.42,10.56-13.74,22.7-13.78,35Z"/><polygon class="girl_cls-12" points="131.9 145.93 127.81 191.05 135.66 204.19 146.65 193.79 154.19 143.9 131.9 145.93"/><polygon class="girl_cls-12" points="200.07 146.67 197.35 191.38 205.96 201.64 217.69 191.7 221.19 146.23 200.07 146.67"/><polygon class="girl_cls-2" points="127.81 191.05 135.66 204.19 146.65 193.79 135.35 199.07 127.81 191.05"/><polygon class="girl_cls-2" points="197.35 191.38 205.96 201.64 217.69 191.7 207.51 197.63 197.35 191.38"/><path class="girl_cls-2" d="M138.55,188.36a2.08,2.08,0,1,1-2.08-2.12,2.08,2.08,0,0,1,2.08,2.12Z"/><path class="girl_cls-2" d="M208.93,187.19a3.22,3.22,0,1,1-3.22-3.29,3.25,3.25,0,0,1,3.22,3.28Z"/><path class="girl_cls-14" d="M170.3,288.89h0A29.28,29.28,0,0,1,141,259.66V240h58.55v19.69A29.27,29.27,0,0,1,170.3,288.89Z"/><path class="girl_cls-2" d="M199.56,240c.36,15.72.85,20,0,24.82-6.76,33.29-51.86,33.32-58.62,0-.83-4.93-.33-8.7,0-24.83l.46,16.5c.36,41.77,57.23,42.06,57.63,0Z"/><path class="girl_cls-14" d="M170.3,288.89h0A29.28,29.28,0,0,1,141,259.66V240h58.55v19.69A29.27,29.27,0,0,1,170.3,288.89Z"/><path class="girl_cls-2" d="M199.56,240c.36,15.72.85,20,0,24.82-6.76,33.29-51.86,33.32-58.62,0-.83-4.93-.33-8.7,0-24.83l.46,16.5c.36,41.77,57.23,42.06,57.63,0Z"/><path class="girl_cls-15" d="M168.78,106.66l-2,45.18s2.37,10.49,14.61,10.49,15-4.84,15-4.84L199.55,101Z"/><path class="girl_cls-1" d="M199.56,101l-30.78,5.68v4.46c0,6.12,9,14.73,13.6,15.26,8,.93,14.52-8.91,16.69-17.52Z"/><path class="girl_cls-15" d="M218.69,79.06c-1.78,6-6,10.08-9.45,9s-4.77-6.81-3-12.85,6-10.08,9.44-9S220.46,73,218.69,79.06Z"/><path class="girl_cls-15" d="M164.3,74.66c1.44,5.88-.11,11.33-3.47,12.19s-7.24-3.2-8.68-9.07.12-11.32,3.47-12.18S162.85,68.84,164.3,74.66Z"/><path class="girl_cls-16" d="M161.67,42.89c-3.6,5.75-3.54,17-3.95,27-.54,13.74,5.53,46.26,21.84,47.88s24.84-14.7,28.52-27.61,3.58-39.63-5.1-48.51S168.88,31.35,161.67,42.89Z"/><path class="girl_cls-1" d="M210.72,78.38s1.71-5.6,4.9-4.31.29,12.24-2.45,13.29S208.7,82,210.72,78.38Z"/><path class="girl_cls-1" d="M160.3,73.74c-.34-.35-3.49-7-5.62-4.77s-.5,18.27,2.43,15.27S160.3,73.74,160.3,73.74Z"/><path class="girl_cls-17" d="M161.67,42.89c-2.82,4.51-2.17,12.56-2.91,20.54,4-11.71,24-27.19,26-28.69C175.44,34,165.71,36.43,161.67,42.89Z"/><path class="girl_cls-18" d="M211.19,60.74c-1.55-7.9-4.33-15.09-8.21-19.07s-11-6.34-18.22-6.93C188,44.05,203.35,55.37,211.19,60.74Z"/><path class="girl_cls-19" d="M183.91,100.86a16.28,16.28,0,0,1-1.7-.09,1.54,1.54,0,0,1-1-2,1.53,1.53,0,0,1,1.4-1c.27,0,6.76.86,9.35-4.09a1.53,1.53,0,0,1,2.74,1.37l0,0C192,100.16,186.66,100.86,183.91,100.86Z"/><path class="girl_cls-19" d="M180.35,83.66c.88-1.66,2.56-4,4.37-4.31,1.84.15,3.53,2.62,4.36,4.29C184.72,79,184.81,79.11,180.35,83.66Z"/><path class="girl_cls-19" d="M190.71,60.5s4.87-2,6.71-2S206,63.08,206,63.08s-6.18-3.9-9.08-3.1-5,3.64-6.18,2.43S190.71,60.5,190.71,60.5Z"/><path class="girl_cls-19" d="M177.89,60.5s-4.87-2-6.71-2-8.56,4.58-8.56,4.58,6.19-3.9,9.08-3.1,5,3.64,6.19,2.43S177.89,60.5,177.89,60.5Z"/><path class="girl_cls-18" d="M182.43,29.66S162.65,21.9,150.3,47.22c-8,16.43-38.62,91.05-20.47,130.86h15.26l-3.22-18.56,10,18.56,9.84-1.89s-15.79-29.53-14.51-44.53c0,0,7.89,34,19.6,38.6l13.55-3.5s-21.59-9.19-18.26-43.85c2-20.94-6.66-66,6-78.9,8.46-8.65,16.68-9.25,16.68-9.25Z"/><path class="girl_cls-1" d="M175,78c0,1.94-2.78,3.52-6.2,3.52s-6.21-1.58-6.21-3.52,2.78-3.52,6.21-3.52S175,76,175,78Z"/><path class="girl_cls-1" d="M207.39,78.32c0,1.75-2.83,3.17-6.32,3.17s-6.31-1.42-6.31-3.17,2.82-3.17,6.31-3.17S207.39,76.57,207.39,78.32Z"/><path class="girl_cls-19" d="M197.87,69a2.13,2.13,0,1,1-2.12-2.34A2.23,2.23,0,0,1,197.87,69Z"/><path class="girl_cls-7" d="M190.64,69.81c6-10.77,12.07,3.68,16.06-.66-.69,1.57-2.81,2.06-4.46,1.41C196.88,68.49,197.37,64.66,190.64,69.81Z"/><path class="girl_cls-19" d="M171.55,68.25A2.13,2.13,0,1,0,173.8,66,2.25,2.25,0,0,0,171.55,68.25Z"/><path class="girl_cls-7" d="M178.73,69.48c-5.37-11.08-12.24,3-16-1.53.61,1.6,2.7,2.21,4.38,1.65C172.57,67.83,172.3,63.94,178.73,69.48Z"/><path class="girl_cls-3" d="M86.88,728.33s20.85,97.46,14.05,104.4S83.59,852.46,69,853.66s-12.24,14-12.24,14L110.89,866l4-3.61,2.12,3.37,16-1.68s19.07-116.68,15.53-145.55Z"/><path class="girl_cls-20" d="M148.52,718.46l-61.66,9.87s.87,4,2.17,10.46c13.61-2.52,46.1-8.75,59.92-11.4A76.17,76.17,0,0,0,148.52,718.46Z"/><path class="girl_cls-21" d="M154.11,702.87c-3.5,4.42-3.19,9.08-3.43,12.55,7.22-26.85,22.45-7.63,0,0C183.2,712.88,165.35,688.74,154.11,702.87Z"/><path class="girl_cls-20" d="M98.83,846.91c18.61-11.53,8.59-35.52-1.77-106.07l4.17,18.37c.08.39,9.27,46.7,9.17,46.24,1.28,8.64,4,19,1.76,28.71-4.78,23.23-31.16,21.07-45.74,29.25-.39,0-1.73.85-2.58-.74C63.3,861.75,88,853.79,98.83,846.91Z"/><polygon class="girl_cls-21" points="82.17 734.92 83.31 723.05 151.5 712.14 154.99 723.28 82.17 734.92"/><polygon class="girl_cls-20" points="134.68 861.9 117.95 863.66 115.28 859.4 110.14 864.03 54.8 865.75 54.92 869.6 111.61 867.83 114.47 865.25 116.03 867.73 133.74 867.08 134.68 861.9"/><path class="girl_cls-3" d="M176.53,867.66h45.89S217,848.05,208.3,846.48c-23.86-4.28-32.45-.75-32.45-.75S172.87,858.6,176.53,867.66Z"/><polygon class="girl_cls-3" points="169.22 718.46 227.6 718.46 208.31 847.17 176.01 848.65 169.22 718.46"/><rect class="girl_cls-20" x="174.71" y="865.69" width="49.6" height="3.85"/><path class="girl_cls-20" d="M182.1,859.4c8.06-8.37,18.89-10.91,30.68-3a2,2,0,0,1,.53,2.68c-2.36,3.65-5.62-5.59-16.63-5.46A23.67,23.67,0,0,0,182.1,859.4Z"/><polygon class="girl_cls-20" points="169.22 718.46 227.6 718.46 226.38 726.6 169.66 726.6 169.22 718.46"/><polygon class="girl_cls-21" points="168.75 712.82 230.91 709.56 229.25 722.53 167.59 720.63 168.75 712.82"/><path class="girl_cls-20" d="M220.82,733,199.24,840.5l17.88-108.2a1.9,1.9,0,0,1,2.16-1.58h0a1.92,1.92,0,0,1,1.54,2.23Z"/><path class="girl_cls-15" d="M221.19,256.76S208,305.1,205.58,320.41,172,407.71,172,407.71l23.48,6.09s38.94-71.49,38.94-88.85,20.64-78.4,20.64-78.4Z"/><path class="girl_cls-8" d="M220.54,151.44l-3.52,113L260.68,267S260.68,146.66,220.54,151.44Z"/><path class="girl_cls-17" d="M184.76,34.74s18.83,1.47,22.64,19.66,3.71,46.24,0,59.55-13.83,23.71-13.83,23.71l12.11,2.74,4.33-9.28a101.56,101.56,0,0,1-3.15,15.93c-2.17,7.06-7.43,15.27-7.43,15.27l14.4,4.79,6.84-28.53.79,23.2,21.12-4.64-5.92-14.73s4.14,8.47,12,12.31l7.7-10.49s-15.79,3.63-22.69-34.49S222,51.62,212.44,40.38c-13.48-15.85-30-10.74-30-10.74Z"/><path class="girl_cls-20" d="M163.07,431.51s-.85.73-2.22,2c-.14,0-15.61,4.55-19.69,9a34.66,34.66,0,0,0-6.28,10.64s-4.5,13.11,6.89,1.72c-2,2.49.14-.67-.54,1.25-2.87,8.22-4.54,16.61,9.72,18.11s21.91-1.56,25.11-3.06,7.61-33.61,7.61-33.61Z"/><path class="girl_cls-20" d="M207.75,396.87a41,41,0,0,1-33.8-8.58l-13.1,45.18,22.46,5.85L212,396Z"/><path class="girl_cls-22" d="M212,396c-16.19,5.12-29.38,1.16-38.07-7.75C189.4,398.33,200.35,396.91,212,396Z"/><path class="girl_cls-20" d="M104.13,425.51s.68.89,1.76,2.39c.13.07,14.28,7.75,17.34,12.92a34.35,34.35,0,0,1,3.87,11.73s1.62,13.76-7.09.22c1.41,2.85,0-.68.25,1.34,1.07,8.64.92,17.19-13.34,15.63S85.85,463.56,83,461.42s-.3-34.46-.3-34.46Z"/><path class="girl_cls-20" d="M67.83,382.17A40.94,40.94,0,0,0,102.68,381l3.21,46.94-23.19.94L63.83,380.45Z"/><path class="girl_cls-22" d="M63.83,380.45c14.74,8.44,28.47,7.37,38.85.51C85.45,387.49,75.05,383.78,63.83,380.45Z"/><path class="girl_cls-23" d="M228.92,546.66C228.8,556.24,179.79,564,119.34,564S9.86,556.24,9.76,546.66A81.24,81.24,0,0,0,4.25,576c0,52.94,51.52,95.85,115.09,95.85S234.42,628.92,234.42,576A81,81,0,0,0,228.92,546.66Z"/><path class="girl_cls-24" d="M234.42,576a81,81,0,0,0-5.5-29.32C228.8,556.26,179.79,564,119.34,564S9.86,556.26,9.76,546.68a83,83,0,0,0-4.25,15.23c27.87,6.92,137.6,27.21,153.35,26.08,17.86-1.27,46.71,75-65.34,81.41a137.29,137.29,0,0,0,25.82,2.45C182.9,671.85,234.42,628.94,234.42,576Z"/><path class="girl_cls-25" d="M119.3,564c60.45,0,109.46-7.75,109.58-17.33h0a8.92,8.92,0,0,0-3.75-4.53c-12.5-7.41-55.13-12.87-105.83-12.87-50.44,0-92.9,5.4-105.64,12.75a9.1,9.1,0,0,0-3.93,4.63h0C9.86,556.26,58.88,564,119.3,564Z"/><path class="girl_cls-13" d="M239.52,545.35c-3.6-33.1-197.19-30.44-230.41-11.28-6.55,3.78-8,8.17-8.35,9.19,0,.85-17.52,29.94,118.58,29.94C145.77,573.2,242.37,571.59,239.52,545.35ZM13.63,550c-32.52-18.64,188.71-30,213.6-5.78C248,564.44,53.89,573.12,13.63,550Z"/><path class="girl_cls-26" d="M84.3,521.71a22.75,22.75,0,0,1-13.52,0c-11.2,0-20.28,8.1-20.28,18.08s9.08,18.07,20.28,18.07a22.75,22.75,0,0,1,13.52,0c11.2,0,20.28-8.09,20.28-18.07S95.53,521.71,84.3,521.71Z"/><path class="girl_cls-26" d="M124.52,521.71a22.75,22.75,0,0,1-13.52,0c-11.2,0-20.28,8.1-20.28,18.08S99.8,557.86,111,557.86a22.75,22.75,0,0,1,13.52,0c11.2,0,20.28-8.09,20.28-18.07S135.72,521.71,124.52,521.71Z"/><path class="girl_cls-26" d="M169.3,524.39a22.44,22.44,0,0,1-13.52,0c-11.2,0-20.28,8.09-20.28,18.07s9.08,18.08,20.28,18.08a22.75,22.75,0,0,1,13.52,0c11.2,0,20.28-8.09,20.28-18.08S180.51,524.39,169.3,524.39Z"/><path class="girl_cls-27" d="M36.8,529.66c-13.2-4.16-27,4.58-27,17s13.83,21.2,27,17c13.19,4.16,27-4.58,27-17C63.83,536.66,50,525.47,36.8,529.66Z"/><path class="girl_cls-28" d="M81.78,534.66c-13.19-4.16-27,4.59-27,17s13.84,21.21,27,17c13.19,4.15,27-4.59,27-17C108.82,541.66,95,530.45,81.78,534.66Z"/><path class="girl_cls-26" d="M121.22,517.77c-13.19-4.16-27,4.58-27,17s13.83,21.2,27,17c13.19,4.16,27-4.58,27-17C148.3,524.83,134.43,513.66,121.22,517.77Z"/><path class="girl_cls-26" d="M202.16,525.43c-13.19-4.16-27,4.58-27,17s13.83,21.21,27,17c13.19,4.16,27-4.59,27-17S215.36,521.26,202.16,525.43Z"/><path class="girl_cls-28" d="M166.21,522.74c-13.19-4.15-27,4.59-27,17s13.84,21.2,27,17c13.19,4.15,27-4.58,27-17C193.3,529.81,179.42,518.58,166.21,522.74Z"/><path class="girl_cls-29" d="M131.65,533.35c-13.19-4.15-27,4.59-27,17s13.83,21.2,27,17c13.19,4.16,27-4.58,27-17S144.85,529.19,131.65,533.35Z"/><path class="girl_cls-27" d="M178.55,532.44c-13.19-4.16-27,4.58-27,17s13.83,21.2,27,17c13.19,4.16,27-4.59,27-17S191.75,528.27,178.55,532.44Z"/><path class="girl_cls-29" d="M81.78,515.28c-13.19-4.16-27,4.58-27,17s13.84,21.21,27,17c13.19,4.16,27-4.58,27-17C108.82,522.34,95,511.12,81.78,515.28Z"/><path class="girl_cls-30" d="M36.69,513.3a12.77,12.77,0,0,1,1.52,4.23,18.41,18.41,0,0,1,.31,4.19,24.49,24.49,0,0,1-1.72,7.92,23.66,23.66,0,0,0,.19-7.83,17.17,17.17,0,0,0-1-3.65,10.57,10.57,0,0,0-1.73-3h0a1.54,1.54,0,0,1,2.28-2.08A1.07,1.07,0,0,1,36.69,513.3Z"/><path class="girl_cls-30" d="M81.73,499.26a12.77,12.77,0,0,1,1.52,4.23,19,19,0,0,1,.31,4.2,24.43,24.43,0,0,1-1.72,7.91,23.6,23.6,0,0,0,.19-7.82,16.6,16.6,0,0,0-1-3.65,10.34,10.34,0,0,0-1.73-3h0a1.56,1.56,0,0,1,.09-2.18,1.54,1.54,0,0,1,2.18.09h0A.82.82,0,0,1,81.73,499.26Z"/><path class="girl_cls-30" d="M132.17,516.6a12.89,12.89,0,0,1,1.51,4.24A19,19,0,0,1,134,525a24.71,24.71,0,0,1-1.73,7.91,24.15,24.15,0,0,0,.2-7.82,16.6,16.6,0,0,0-1-3.65,10.57,10.57,0,0,0-1.73-3h0a1.56,1.56,0,0,1,.09-2.18,1.54,1.54,0,0,1,2.18.09A1.12,1.12,0,0,1,132.17,516.6Z"/><path class="girl_cls-30" d="M178,516.6a12.61,12.61,0,0,1,1.52,4.24,18.41,18.41,0,0,1,.31,4.19,24.18,24.18,0,0,1-1.73,7.91,23.6,23.6,0,0,0,.2-7.82,17.17,17.17,0,0,0-1-3.65,10.57,10.57,0,0,0-1.73-3h0a1.56,1.56,0,0,1,.25-2.18,1.54,1.54,0,0,1,2,.09A1.07,1.07,0,0,1,178,516.6Z"/><path class="girl_cls-31" d="M178.3,531.48a26.88,26.88,0,0,0,17,.52c8.76-2.87,13-15.16,13-15.16S180.35,510.43,178.3,531.48Z"/><path class="girl_cls-31" d="M36.57,529.87A26.83,26.83,0,0,0,25.44,517c-8.06-4.49-19.93.76-19.93.76S19.74,542.66,36.57,529.87Z"/><path class="girl_cls-31" d="M118.3,561.25a26.82,26.82,0,0,0-11.14-12.84c-8-4.49-19.92.76-19.92.76S101.5,574,118.3,561.25Z"/><path class="girl_cls-13" d="M229.2,543.77c-3.31,15.8-175.38,29.31-215.57,6.26-3.46-2-4.74-4.28-3.62-6.26l-9.62.59c-1.61,5.43-3.15,28.84,119,28.84,26.43,0,123-1.61,120.18-27.85a5.21,5.21,0,0,0-.2-1Z"/><path class="girl_cls-32" d="M2.23,552.9c24,28,217.92,23.06,235-.34a10.53,10.53,0,0,0,2.34-7.21c2.12,16.92-36.35,23.1-53.09,25.46C149.3,575.66,22.75,580.13,2.23,552.9Z"/><path class="girl_cls-33" d="M17.36,586.08c24.47,11.59,49.7,13.41,76.83,11.16C62.3,604.06,34,597.15,17.36,586.08Z"/><path class="girl_cls-33" d="M101.9,638.52c24,8.34,47.37,7.05,72.2,1.26C145.56,650.54,118.83,647.4,101.9,638.52Z"/><path class="girl_cls-33" d="M121.18,624.51c27.57,7.07,53,3.24,77.54-3.66C168.68,633.66,139.65,632.2,121.18,624.51Z"/><path class="girl_cls-33" d="M62.11,648.92c26.26,11.7,52.14,12,77.07,9.36C107.23,665.89,79,659.57,62.11,648.92Z"/><path class="girl_cls-33" d="M38.53,605.77c24.48,11.59,49.7,13.41,76.83,11.16C83.42,623.75,55.2,616.83,38.53,605.77Z"/></g></g></g></svg>
