<svg xmlns="http://www.w3.org/2000/svg" viewBox="0 0 1273.83 1502.96"><defs><style>.tree_cls-1{fill:#bfd34b;}
    .tree_cls-2{fill:#32213d;}.tree_cls-3{fill:#432b48;}.tree_cls-4{fill:#505c05;}.tree_cls-5{fill:#6a7b06;}.tree_cls-6{fill:#d9e021;}.tree_cls-7{fill:#81a556;}.tree_cls-8{fill:#a3a819;}.tree_cls-9{fill:#ff5;}</style></defs><g id="Layer_2" data-name="Layer 2"><g id="Layer_1-2" data-name="Layer 1"><g id="_Layer_" data-name=" Layer "><path class="tree_cls-1" d="M1273.83,1459.8c0,23.84-285.15,43.16-636.91,43.16S0,1483.64,0,1459.8s285.15-43.15,636.92-43.15S1273.83,1436,1273.83,1459.8Z"/><path class="tree_cls-2" d="M769.72,617.53s-19.88,278.55-72.15,315.93l-5,36.16,19.9,23.64S743.58,892.48,756,853.91l160.5-129.4-8.7-7.46S775.94,827.78,758.51,827.78c0,0,31.1-182.9,24.88-201.56S769.72,617.53,769.72,617.53Z"/><path class="tree_cls-3" d="M682.63,1039.31c6.47,25.92-8.44,322.69-12.5,400.73h53c-1.68-82.55,6.74-392,6.74-392l-3.73-27.38L728,965.92s-49.15-54.75-64.08-87.1-56-301.09-56-301.09l-27.37-18.67s48.24,270,58.48,317.28c11.5,53.18,34.21,97,34.21,113.22S675.17,1009.46,682.63,1039.31Z"/><path class="tree_cls-4" d="M401.46,234.07s-101.24-103-150.71-85.72-23.58,85.72-23.58,85.72-58,39.08-39.66,90.22,78.29,48.06,78.29,48.06-75.3,24.71-30.93,69.09,110.34,15.74,117.23-7.52S401.46,234.07,401.46,234.07Z"/><path class="tree_cls-5" d="M1165.37,590.16s46-31.11,18.66-92.07-89.58-56-89.58-56,69.68-70.92,24.89-146.82-61-37.32-70.92-47.27,3.73-69.68-83.36-107-115.71-1.24-115.71-1.24C863,80,733.64-7.06,682.63.46s-56,58.09-56,58.09S583.91,49,537.91,50.28C519.83,35.16,496,24,482.91,25.87c-24,3.51-26.33,27.32-26.33,27.32s-53.83-12.11-80.16,6-21.06,51.46-21.06,51.46-37.44-1.15-56.75,31,8.19,56.17,8.19,56.17-9.36-5.27-18.14,8.19c-5.54,8.51,3.17,18,11.37,27.15a129.6,129.6,0,0,0-9.38,13.59c-41,68.44,17.52,119.45,17.52,119.45S288.26,355,269.6,383.62s38.57,62.21,47.23,90.84-39.81,17.42-26.12,51,37.94,21.78,49.76,33.59-64.7,33.6-64.7,55.83,37.33-14.77,57.24-8.55-21.16,38.57-8.71,51,33.67-59.81,51-42.47-13.07,40.6,0,53.66,17.42-53.66,31.1-53.66-10,58.64,21.15,38.73,6-58.21,16.18-48,4.25,33.59,19.9,17.94,12.45-35.88,28.62-35.88,0,22.4,11.2,33.59,37.32-22.39,37.32-22.39,124.4-14.91,118.84,43.61,51.63,48.52,104.11,39,65.72,25.69,65.72,76.71,83.36,120.64,133.13,88.29,61-57.23,77.14-31.1,148.06-19.9,181.65-136.9S1165.37,590.16,1165.37,590.16Z"/><path class="tree_cls-4" d="M671.43,343.81s-79.63,26.13-32.35,73.41,125.66,1.24,114.46,77.14S706,576.36,754.63,625s92.23,5,92.23,5,48.52,118.2,104.51,128.16S1082,733.27,1060.86,657.38s-94.56-82.12-94.56-82.12,163,54.74,163-6.22-128.72-62.89-97-94.56c6.85-6.84,107-49.77,48.53-108.25s-125.67-2.48-125.67-2.48,31.11-19.91,7.47-77.14-97-66-105.76-39.82-44.79-89.58-118.2-112-107,54.25-67.18,104.89,75.94,53.13,75.94,53.13-105.8-59.72-148.11-43.55S671.43,343.81,671.43,343.81Z"/><path class="tree_cls-4" d="M517.17,398.55c6.06-6.06,8.39-112.91-26.13-121.31s-36.86,36.86-31.73,42-2.8-62.53-33.59-71.86,28.93,142.77,18.66,123.18-56-81.18-84.92-76.52,32.65,91.42,32.65,91.42-42-32.66-61.59-3.73S391.17,434,391.17,434s-48.52,6.54-19.59,45.73,65.31-20.53,65.31-20.53-43.85,50.39,2.8,71.85,41.06-62.52,41.06-62.52-5.48,59.14,21,81.82c6.28,5.37,14.35,8.69,24.73,8.69,54.12,0,8.4-99.84,8.4-99.84S627.26,560,636.59,509.6,520,403,520,403s60.65,23.54,60.65-11.92S517.17,398.55,517.17,398.55Z"/><path class="tree_cls-6" d="M992.36,516a22.75,22.75,0,0,1-13.52,0c-11.2,0-20.28,8.09-20.28,18.07s9.08,18.07,20.28,18.07h13.52c11.2,0,20.28-8.09,20.28-18.07S1003.56,516,992.36,516Z"/><path class="tree_cls-7" d="M985.85,517.61a26.92,26.92,0,0,0,16.86-2.09c8.22-4.19,10.48-17,10.48-17S984.61,496.51,985.85,517.61Z"/><path class="tree_cls-6" d="M803.53,404.7a16.51,16.51,0,0,1-13.52,0c-11.2,0-20.28,11.37-20.28,25.41s9.08,25.42,20.28,25.42h13.52c11.2,0,20.27-11.38,20.27-25.42S814.73,404.7,803.53,404.7Z"/><path class="tree_cls-7" d="M797,406.35a27.09,27.09,0,0,0,16.87-2.1c8.21-4.18,10.47-17,10.47-17S795.77,385.25,797,406.35Z"/><path class="tree_cls-7" d="M797,406.35a27,27,0,0,0-7-15.47c-6.46-6.58-19.33-4.91-19.33-4.91S777.24,413.84,797,406.35Z"/><path class="tree_cls-8" d="M563.38,409.34a22.56,22.56,0,0,1-13.51,0c-11.2,0-20.28,8.09-20.28,18.08s9.08,18,20.28,18a22.56,22.56,0,0,1,13.51,0c11.21,0,20.28-8.09,20.28-18.07S574.59,409.34,563.38,409.34Z"/><path class="tree_cls-8" d="M1008.77,394.2a15.17,15.17,0,0,1-13.52,0c-11.2,0-20.28,12.41-20.28,27.71s9.08,27.7,20.28,27.7h13.52c11.2,0,20.28-12.41,20.28-27.7S1020,394.2,1008.77,394.2Z"/><path class="tree_cls-8" d="M790.59,278.63a16.83,16.83,0,0,1-13.52,0c-11.2,0-20.28,11.13-20.28,24.87s9.08,24.87,20.28,24.87a16.75,16.75,0,0,1,13.52,0c11.19,0,20.27-11.13,20.27-24.87S801.78,278.63,790.59,278.63Z"/><path class="tree_cls-8" d="M914.78,206.35a22.72,22.72,0,0,1-13.51,0c-11.2,0-20.29,8.09-20.29,18.07s9.09,18,20.29,18a22.56,22.56,0,0,1,13.51,0c11.2,0,20.28-8.09,20.28-18.08S926,206.35,914.78,206.35Z"/><path class="tree_cls-7" d="M556.87,411a27.09,27.09,0,0,0,16.87-2.1c8.21-4.19,10.47-17,10.47-17S555.63,389.9,556.87,411Z"/><path class="tree_cls-7" d="M556.87,411a26.94,26.94,0,0,1-8.39-14.78c-1.55-9.09,7.36-18.53,7.36-18.53S574.54,399.39,556.87,411Z"/><path class="tree_cls-7" d="M556.87,411a27,27,0,0,0-7-15.47c-6.45-6.59-19.33-4.92-19.33-4.92S537.11,418.46,556.87,411Z"/><path class="tree_cls-6" d="M372,495.85a22.75,22.75,0,0,1-13.52,0c-11.2,0-20.28,8.09-20.28,18.08S347.28,532,358.48,532H372c11.2,0,20.27-8.09,20.27-18.07S383.17,495.85,372,495.85Z"/><path class="tree_cls-7" d="M365.48,497.51a27.09,27.09,0,0,0,16.87-2.1c8.21-4.19,10.47-17,10.47-17S364.24,476.4,365.48,497.51Z"/><path class="tree_cls-7" d="M273.8,376.32A27,27,0,0,0,269.13,360c-5.4-7.47-18.38-7.74-18.38-7.74S253.17,380.79,273.8,376.32Z"/><path class="tree_cls-7" d="M365.48,497.51a27,27,0,0,1-8.39-14.78c-1.55-9.09,7.36-18.54,7.36-18.54S383.17,485.9,365.48,497.51Z"/><path class="tree_cls-7" d="M365.48,497.51a27,27,0,0,0-7-15.47c-6.45-6.59-19.32-4.92-19.32-4.92S345.72,505,365.48,497.51Z"/><path class="tree_cls-6" d="M379.89,278.63a17.88,17.88,0,0,1-13.52,0c-11.2,0-20.27,10.47-20.27,23.38s9.07,23.37,20.27,23.37h13.52c11.2,0,20.28-10.46,20.28-23.37S391.09,278.63,379.89,278.63Z"/><path class="tree_cls-7" d="M373.38,280.28a26.92,26.92,0,0,0,16.86-2.09c8.22-4.19,10.47-17,10.47-17S372.17,259.18,373.38,280.28Z"/><path class="tree_cls-7" d="M373.38,280.28A27,27,0,0,1,365,265.5c-1.55-9.09,7.36-18.53,7.36-18.53S391,268.67,373.38,280.28Z"/><path class="tree_cls-7" d="M373.38,280.28a26.88,26.88,0,0,0-7-15.47c-6.45-6.58-19.32-4.91-19.32-4.91S353.61,287.78,373.38,280.28Z"/><path class="tree_cls-6" d="M590.59,188.28a22.75,22.75,0,0,1-13.52,0c-11.2,0-20.27,8.09-20.27,18.07s9.07,18.11,20.27,18.11a22.59,22.59,0,0,1,13.52,0c11.2,0,20.28-8.09,20.28-18.07S601.79,188.28,590.59,188.28Z"/><path class="tree_cls-6" d="M532.41,328.37a15.56,15.56,0,0,1-13.52,0c-11.2,0-20.28,12.14-20.28,27.11s9.08,27.12,20.28,27.12h13.52c11.2,0,20.28-12.14,20.28-27.12S543.61,328.37,532.41,328.37Z"/><path class="tree_cls-6" d="M640.35,346.46a20.33,20.33,0,0,1-13.51,0,20.39,20.39,0,1,0,0,40.78h13.51a20.39,20.39,0,0,0,0-40.78Z"/><path class="tree_cls-6" d="M527.81,424.1a18.16,18.16,0,0,1-13.52,0c-11.2,0-20.28,10.29-20.28,23s9.08,23,20.28,23a18,18,0,0,1,13.52,0c11.2,0,20.28-10.29,20.28-23S539,424.1,527.81,424.1Z"/><path class="tree_cls-6" d="M456.17,133.63a18.06,18.06,0,0,1-13.52,0c-11.2,0-20.28,10.3-20.28,23s9.08,23,20.28,23a18.06,18.06,0,0,1,13.52,0c11.2,0,20.28-10.29,20.28-23S467.39,133.63,456.17,133.63Z"/><path class="tree_cls-6" d="M499.06,219.51a18.06,18.06,0,0,1-13.52,0c-11.2,0-20.28,10.3-20.28,23s9.08,23,20.28,23a18.06,18.06,0,0,1,13.52,0c11.2,0,20.28-10.29,20.28-23S510.26,219.51,499.06,219.51Z"/><path class="tree_cls-6" d="M399,393.13a17,17,0,0,1-13.52,0c-11.2,0-20.28,11-20.28,24.52s9.08,24.52,20.28,24.52H399c11.2,0,20.28-11,20.28-24.52S410.24,393.13,399,393.13Z"/><path class="tree_cls-6" d="M331.81,433.92a22.72,22.72,0,0,1-13.51,0C307.09,433.92,298,442,298,452s9.08,18.08,20.29,18.08h13.51c11.2,0,20.28-8.1,20.28-18.08S343,433.92,331.81,433.92Z"/><path class="tree_cls-6" d="M279.31,372.35a18.56,18.56,0,0,1-13.52,0c-11.2,0-20.28,10-20.28,22.38s9.08,22.37,20.28,22.37h13.52c11.2,0,20.28-10,20.28-22.37S290.51,372.35,279.31,372.35Z"/><path class="tree_cls-7" d="M584.08,189.93a27.06,27.06,0,0,0,16.86-2.09c8.22-4.19,10.47-17,10.47-17S582.84,168.83,584.08,189.93Z"/><path class="tree_cls-7" d="M584.08,189.93a27,27,0,0,1-8.4-14.78c-1.54-9.09,7.36-18.53,7.36-18.53S601.74,178.32,584.08,189.93Z"/><path class="tree_cls-7" d="M584.08,189.93a27,27,0,0,0-7-15.47c-6.46-6.58-19.33-4.91-19.33-4.91S564.31,197.46,584.08,189.93Z"/><path class="tree_cls-6" d="M643.47,449.61a16.28,16.28,0,0,1-13.52,0c-11.2,0-20.28,11.54-20.28,25.77s9.08,25.78,20.28,25.78h13.52c11.2,0,20.28-11.54,20.28-25.78S654.67,449.61,643.47,449.61Z"/><path class="tree_cls-7" d="M637,451.26a27,27,0,0,0,16.87-2.09c8.22-4.19,10.47-17,10.47-17S635.72,430.16,637,451.26Z"/><path class="tree_cls-6" d="M781,588.46a19.53,19.53,0,0,1-13.52,0c-11.2,0-20.28,9.49-20.28,21.2s9.08,21.2,20.28,21.2a19.41,19.41,0,0,1,13.52,0c11.2,0,20.28-9.49,20.28-21.2S792.17,588.46,781,588.46Z"/><path class="tree_cls-7" d="M774.44,590.08A27,27,0,0,0,791.31,588c8.22-4.19,10.47-17,10.47-17S773.17,569,774.44,590.08Z"/><path class="tree_cls-7" d="M774.44,590.08a26.9,26.9,0,0,1-15-8.06c-6.14-6.89-3.61-19.62-3.61-19.62S783.25,570.87,774.44,590.08Z"/><path class="tree_cls-9" d="M347,163.81c-13.19-5-27,5.55-27,20.64s9.65,24.32,27,27.12c19.87,0,27-12,27-27.12S360.17,158.77,347,163.81Z"/><path class="tree_cls-9" d="M320,254.25c-13.19-5-27,5.55-27,20.63s9.65,24.32,27,27.13c19.87,0,27-12.05,27-27.13S333.17,249.21,320,254.25Z"/></g></g></g></svg>
