<svg width="50" height="43" fill="none" xmlns="http://www.w3.org/2000/svg"><path d="M49 21L25 2 1 21" stroke="#FF8200" stroke-width="2"/><path d="M6 17v25h38V17" stroke="#FF8200" stroke-width="2"/><path d="M24.514 15.127c.357-.889 1.615-.889 1.972 0a3.063 3.063 0 004.283 1.559c.845-.451 1.809.357 1.512 1.268A3.064 3.064 0 0034.56 21.9c.936.198 1.155 1.436.342 1.943a3.063 3.063 0 00-.791 4.488c.59.754-.039 1.843-.987 1.709a3.063 3.063 0 00-3.491 2.93c-.032.957-1.214 1.387-1.854.674a3.063 3.063 0 00-4.558 0c-.64.713-1.822.283-1.854-.674a3.063 3.063 0 00-3.491-2.93c-.948.134-1.577-.955-.987-1.709a3.063 3.063 0 00-.791-4.488c-.813-.507-.594-1.745.342-1.943a3.063 3.063 0 002.28-3.947c-.298-.91.666-1.719 1.51-1.268a3.063 3.063 0 004.284-1.56z" stroke="#FF8200" stroke-width="2"/><circle cx="25.5" cy="24.5" r="2.5" stroke="#FF8200" stroke-width="2"/></svg>