<svg width="42" height="40" fill="none" xmlns="http://www.w3.org/2000/svg"><path d="M11.152 15.756V38.06H1V15.756h10.152zm29.538 6.878l-.014.028-.012.03-5.916 14.001-.001.002c-.444 1.033-1.476 1.76-2.631 1.76H14.361a2.957 2.957 0 01-2.945-2.946V15.782c0-.972.319-1.614.784-1.962l.057-.043.05-.05L24.652 1.381l1.37 1.245c.328.514.557 1.058.557 1.517v.484l-1.95 8.97-.264 1.212h13.669a2.96 2.96 0 012.908 2.474c-.101.166-.16.361-.16.57V21.7c0 .203 0 .401-.02.59a1.17 1.17 0 01-.071.344z" stroke="#FF8200" stroke-width="2"/><circle cx="4.5" cy="20.5" r="1" stroke="#FF8200"/></svg>