<svg width="18" height="17" fill="none" xmlns="http://www.w3.org/2000/svg"><path d="M1.692 1.625l.129-.16.56-.544s0 0 0 0c.307-.297.773-.28 1.025-.036 0 0 0 0 0 0l2.72 2.632s0 0 0 0 0 0 0 0c.239.231.259.643-.036.928h0l-.452.438h0l-.92.888-.397.384.281.476.12.208.022.039h.001l.007.013c.486.846 1.183 2.06 2.502 3.336 1.318 1.277 2.574 1.95 3.448 2.419h.002l.274.148.45.24.366-.354 1.37-1.326h0c.306-.296.772-.28 1.027-.036 0 0 0 0 0 0l2.718 2.63s0 0 0 0c.239.232.259.643-.034.929l-.602.57-.128.098a3.76 3.76 0 01-.936.512 4.04 4.04 0 01-.96.234c-.132.013-3.982.34-8.833-4.353C1.764 8.405.613 5.982.93 3.442v-.005a3.553 3.553 0 01.761-1.812zm3.66 4.905l-.021-.037a17.39 17.39 0 00-.126-.218l.147.255z" stroke="#FF8200" stroke-width="1.4"/></svg>