<svg viewBox="0 0 30 14" fill="none" xmlns="http://www.w3.org/2000/svg"><path d="M27.966 3.328L22.25 1.037a7.97 7.97 0 00-2.98-.575h-3.504c-1.255 0-2.51.3-3.63.87L6.959 3.966l-3.716.541A3.79 3.79 0 000 8.257v2.193c0 .339.275.614.613.614h2.632a3.15 3.15 0 00.881 1.578 3.149 3.149 0 002.206.896c.829 0 1.612-.318 2.206-.896a3.15 3.15 0 00.882-1.578h10.995a3.14 3.14 0 00.882 1.578 3.144 3.144 0 002.205.896c.829 0 1.612-.318 2.205-.896.448-.435.75-.981.882-1.578h2.798A.614.614 0 0030 10.45V6.335a3.225 3.225 0 00-2.034-3.007zm-6.173-1.153l4.413 1.77h-3.33l-1.466-1.91c.129.044.256.09.383.14zm-5.451-.486h2.928c.112 0 .223.002.333.008l1.726 2.247h-4.987V1.69zm-3.65.737a6.807 6.807 0 012.423-.705v2.223H9.707l2.986-1.518zM3.326 5.738a2.225 2.225 0 01-1.917 1.581 2.579 2.579 0 011.917-1.581zm3.007 6.573a1.935 1.935 0 110-3.87 1.935 1.935 0 010 3.87zm17.17 0a1.935 1.935 0 110-3.87 1.935 1.935 0 010 3.87zm5.271-2.474h-2.156a3.167 3.167 0 00-3.115-2.623 3.167 3.167 0 00-3.115 2.623H9.447a3.167 3.167 0 00-3.114-2.623 3.167 3.167 0 00-3.116 2.623h-1.99V8.556a3.45 3.45 0 003.386-3.009l2.58-.376h19.264v.799c0 1.123.913 2.036 2.036 2.036h.28v1.83zm0-3.058h-.28a.81.81 0 01-.809-.809v-.799h.72c.235.333.369.735.369 1.164v.444z"/></svg>