<svg width="22" height="21" fill="none" xmlns="http://www.w3.org/2000/svg"><path d="M19.09 2.55A7.137 7.137 0 0014.062.32 7.137 7.137 0 008.933 2.3a7.162 7.162 0 00-2.017 3.459 7.206 7.206 0 00-.014 3.43L.854 14.947a.755.755 0 00-.235.547v3.92c0 .404.315.736.718.756l3.916.191.019.001c.2.005.394-.07.54-.208l4.491-4.277 1.556-1.48c.6.176 1.221.273 1.851.288a7.136 7.136 0 005.13-1.978c2.869-2.732 2.98-7.288.25-10.157zm-1.292 9.062a5.635 5.635 0 01-4.05 1.562 5.685 5.685 0 01-1.822-.346.755.755 0 00-.782.162L9.81 14.261l-.346-.363a.756.756 0 00-1.095 1.042l.346.363-1.492 1.421-.346-.364a.756.756 0 00-1.095 1.043l.346.363-1.123 1.07-2.874-.14v-2.878l6.141-5.846a.756.756 0 00.2-.773 5.642 5.642 0 011.503-5.804 5.636 5.636 0 014.051-1.563 5.63 5.63 0 013.413 1.247l-2.231 2.124a2.528 2.528 0 00-1.175-.32 2.525 2.525 0 00-1.815.7 2.544 2.544 0 00-.088 3.593 2.52 2.52 0 001.778.788 2.525 2.525 0 001.815-.7c.491-.468.772-1.1.788-1.778a2.53 2.53 0 00-.261-1.189l2.23-2.122a5.68 5.68 0 01-.681 7.437zm-3.082-4.898c.19.199.29.46.283.735-.006.275-.12.531-.32.72-.199.19-.46.291-.735.285a1.031 1.031 0 11.771-1.74z" fill="#fff"/></svg>