<svg width="69" height="54" fill="none" xmlns="http://www.w3.org/2000/svg"><path fill-rule="evenodd" clip-rule="evenodd" d="M64.159.904c-1.037.495-2.414 1.15-3.061 1.453L58.745 3.46c-4.308 2.021-7.751 3.486-15.962 6.794a7005.073 7005.073 0 00-8.523 3.435 4585.212 4585.212 0 00-6.027 2.425l-3.578 1.438c-1.114.446-3 1.203-4.19 1.682a15697.39 15697.39 0 01-13.232 5.312c-3.507 1.406-4.384 1.826-5.24 2.514C.643 28.145.06 29.254.068 30.73c.004.918.247 1.768.77 2.688.366.648.915 1.23 4.893 5.203l4.48 4.474.37.815.372.814 2.776.001 2.777.001-.375-.36c-.33-.318-3.45-3.208-10.114-9.371-2.159-1.997-2.455-2.332-2.698-3.055-.333-.992-.004-1.834.984-2.517.777-.538 1.168-.687 8.674-3.305 1.84-.64 4.106-1.432 5.039-1.758a3523.98 3523.98 0 018.57-2.986 20098.712 20098.712 0 0022.177-7.715l4.316-1.501c6.857-2.386 8.178-2.996 9.517-4.39.814-.849 1.203-1.434 1.857-2.797.656-1.365 1.92-4.596 1.92-4.908 0-.175-.43-.012-2.214.84zm-2.985 10.74c-.76.438-7.805 2.854-16.555 5.676a2365.303 2365.303 0 00-8.052 2.608c-1.605.52-4.254 1.382-5.885 1.914-1.632.532-5.573 1.812-8.758 2.845-5.728 1.858-9.536 3.095-14.048 4.564-1.278.417-2.463.85-2.634.965-.706.47-.923 1.212-.56 1.908.16.306.805.983 1.249 1.311.13.097.646-.011 3.013-.63l3.986-1.038c6.262-1.626 5.674-1.455 5.525-1.603-.15-.148-.139-.584.018-.713.07-.057 4.064-1.152 8.876-2.433 4.81-1.281 9.214-2.453 9.783-2.606a5699.84 5699.84 0 0114.456-3.828c3.556-.933 4.405-1.254 5.4-2.037 1.392-1.096 2.229-2.274 4.008-5.639.637-1.205.687-1.558.178-1.265zm-5.545 10.099c-.021.021-1.395.384-3.052.805a7917.205 7917.205 0 00-8.9 2.27l-5.65 1.441c-3.01.769-6.062 1.546-11.253 2.867-1.71.434-3.659.932-4.332 1.105-.674.173-2.05.525-3.06.781-1.01.256-3.32.845-5.133 1.307L8.94 33.672c-1.106.282-2.03.53-2.052.552-.023.022.604.633 1.392 1.358.918.844 1.487 1.302 1.582 1.274.081-.024 3.452-.656 7.49-1.404 4.04-.75 7.356-1.374 7.37-1.388.015-.015-.058-.103-.162-.196-.24-.214-.24-.438-.003-.65.181-.163.989-.329 10.032-2.056 1.243-.237 3.87-.74 5.838-1.118 1.969-.378 4.808-.918 6.31-1.202 1.502-.283 3.006-.603 3.343-.711 1.564-.503 2.715-1.488 4.19-3.584 1.08-1.533 1.743-2.569 1.743-2.722 0-.11-.293-.173-.385-.082zm-7.102 8.728c-.466.095-7.098 1.33-14.738 2.744-21.506 3.981-22.916 4.244-23.136 4.315-.182.058-.05.208 1.166 1.324a86.22 86.22 0 001.686 1.52l.316.261 6.759-.843c3.717-.464 7.627-.95 8.69-1.079 2.757-.336 2.593-.3 2.399-.513-.223-.244-.118-.601.212-.724.143-.054 1.87-.331 3.839-.616l5.537-.805c3.292-.48 3.967-.773 5.673-2.463 1.237-1.225 2.868-3.052 2.868-3.212 0-.134-.257-.115-1.27.09zm-15.82 8.811c-.181.03-1.927.234-6.263.734-7.84.903-11.716 1.362-11.743 1.389-.017.017.573.593 1.312 1.28l1.767 1.643.424.396 11.952.001c6.574 0 11.934-.015 11.913-.035-.269-.244-8.888-5.46-9.009-5.45-.09.007-.25.026-.354.042zM19.162 46.03c-2.042.257-3.596 1.149-4.192 2.407-.225.475-.251.64-.251 1.556 0 .949.02 1.066.275 1.563.34.664 1.061 1.352 1.76 1.679 1.306.61 3.307.884 5.24.718 3.508-.301 5.223-1.73 5.09-4.241-.094-1.766-1.251-2.919-3.513-3.497-.861-.22-3.31-.323-4.41-.185zm8.411.641v.547l.572.051c.965.087.935 0 .935 2.676 0 2.283-.002 2.3-.218 2.502-.12.111-.321.203-.447.204-.127 0-.39.027-.587.06l-.358.058.028.476.028.477h4.897l.028-.477c.027-.47.023-.478-.27-.536a3.491 3.491 0 00-.558-.06.984.984 0 01-.506-.193l-.248-.193.001-2.067.001-2.067.258.322c.142.176 1.088 1.393 2.102 2.703 1.015 1.31 1.947 2.433 2.072 2.496.159.08.819.116 2.182.117l1.954.001V47.7l.23-.229a.774.774 0 01.507-.228c.151 0 .41-.027.574-.06.294-.058.298-.067.27-.535l-.028-.477-2.43-.025-2.429-.025.029.537.028.538.55.059c.929.098.917.067.888 2.455l-.026 2.04-2.122-2.74c-1.46-1.884-2.195-2.76-2.355-2.803-.127-.035-1.428-.068-2.892-.074l-2.66-.009v.546zm13.979-.425c-.03.076-.04.32-.024.544l.03.407.612.066c.962.105.941.045.941 2.698 0 2.205-.002 2.234-.217 2.446-.157.156-.376.232-.8.28l-.584.065v1.03l4.544-.037c3.907-.032 4.62-.059 5.093-.194 1.76-.504 2.757-1.527 2.969-3.045.287-2.055-.853-3.58-3.11-4.16-.866-.223-9.372-.313-9.454-.1zm-41.194.438c0 .257.01.467.023.467s.273.041.578.09c.941.153.905.043.905 2.764 0 2.72.055 2.569-.97 2.689l-.546.063.028.482.029.483 3.037.024 3.037.025v-.503c0-.488-.009-.504-.295-.56a3.53 3.53 0 00-.565-.058c-.497 0-.647-.27-.647-1.166v-.792H9.68v.837c0 .983-.063 1.059-.97 1.165l-.546.063.029.482.028.483h6.028l.028-.477c.027-.47.023-.478-.27-.536a3.56 3.56 0 00-.57-.06.752.752 0 01-.46-.186c-.178-.176-.188-.31-.188-2.502 0-2.608-.006-2.584.718-2.68.813-.11.789-.09.789-.598v-.465H8.175v.466c0 .257.01.467.023.467s.273.041.578.09c.818.133.905.247.905 1.182v.778H4.973v-.778c0-.894.104-1.061.718-1.143.813-.108.789-.09.789-.597v-.465H.359v.466zm55.768.024c.027.469.04.49.31.513 1.105.092 1.246.127 1.362.34.106.197-.006.412-1.327 2.554-.92 1.49-1.523 2.374-1.662 2.436-.12.054-.353.1-.52.1-.66.003-.736.067-.706.593l.028.477 2.425.025 2.425.025v-1.016l-.503-.062c-.277-.034-.555-.093-.617-.132-.18-.11-.151-.397.079-.775l.212-.35h4.778l.245.415c.328.554.22.797-.358.799-.756.002-.821.051-.821.615v.502h6.592v-1.016l-.569-.063c-.694-.078-.925-.246-1.452-1.056-1.784-2.742-3.541-5.304-3.673-5.354-.088-.033-1.536-.06-3.218-.06h-3.058l.029.489zm-33.584.955c.364.22.525.4.746.839.252.499.282.65.28 1.398-.003 1.097-.153 1.577-.645 2.064-.536.53-1.218.726-2.315.664-.926-.052-1.413-.25-1.863-.757-.415-.469-.541-.916-.542-1.924 0-.799.028-.94.282-1.44.483-.95 1.004-1.184 2.55-1.148.973.023 1.076.044 1.508.304zm27.162.163c.585.294.864.856.923 1.857.077 1.324-.26 2.166-.987 2.467-.22.09-.777.127-1.958.127h-1.651v-4.66h1.628c1.502 0 1.66.016 2.045.21zm11.014 1.119l.757 1.141-.754.027c-.414.015-1.088.015-1.497 0l-.745-.027.712-1.141c.391-.628.725-1.142.74-1.142.017 0 .371.514.787 1.142z" fill="#fff"/></svg>