<svg width="192" height="35" fill="none" xmlns="http://www.w3.org/2000/svg"><path d="M62.648 27L61.4 22.92h-6.24L53.912 27H50l6.048-17.208h4.44L66.56 27h-3.912zm-2.112-7.128l-1.248-3.984c-.08-.272-.184-.616-.312-1.032-.128-.416-.256-.84-.384-1.272a27.668 27.668 0 01-.312-1.128c-.08.32-.192.72-.336 1.2-.128.464-.256.912-.384 1.344-.112.416-.2.712-.264.888l-1.224 3.984h4.464zm19.522-2.544c0 .704-.224 1.304-.672 1.8-.432.496-1.08.816-1.944.96v.096c.912.112 1.64.432 2.184.96.56.512.84 1.16.84 1.944 0 .752-.2 1.424-.6 2.016-.384.592-1 1.056-1.848 1.392-.848.336-1.96.504-3.336.504h-6.24V13.896h6.24c1.024 0 1.936.112 2.736.336.816.208 1.456.568 1.92 1.08.48.496.72 1.168.72 2.016zm-3.624.288c0-.8-.632-1.2-1.896-1.2h-2.52v2.592h2.112c.752 0 1.32-.104 1.704-.312.4-.224.6-.584.6-1.08zm.336 5.28c0-.512-.208-.88-.624-1.104-.4-.24-.992-.36-1.776-.36h-2.352v3.096h2.424c.672 0 1.224-.12 1.656-.36.448-.256.672-.68.672-1.272zm17.614-6.312h-4.296V27h-3.576V16.584h-4.296v-2.688h12.168v2.688zm14.087 3.84c0 2.176-.576 3.856-1.728 5.04-1.136 1.184-2.688 1.776-4.656 1.776-1.216 0-2.304-.264-3.264-.792-.944-.528-1.688-1.296-2.232-2.304-.544-1.024-.816-2.264-.816-3.72 0-2.176.568-3.848 1.704-5.016 1.136-1.168 2.696-1.752 4.68-1.752 1.232 0 2.32.264 3.264.792s1.688 1.296 2.232 2.304c.544 1.008.816 2.232.816 3.672zm-9.048 0c0 1.296.208 2.28.624 2.952.432.656 1.128.984 2.088.984.944 0 1.624-.328 2.04-.984.432-.672.648-1.656.648-2.952s-.216-2.264-.648-2.904c-.416-.656-1.104-.984-2.064-.984-.944 0-1.632.328-2.064.984-.416.64-.624 1.608-.624 2.904zm20.596-6.528h3.936l-5.184 6.288 5.64 6.816h-4.056l-5.352-6.648V27h-3.576V13.896h3.576v6.36l5.016-6.36zM138.022 27h-3.576V16.584h-3.288c-.208 2.56-.488 4.624-.84 6.192-.336 1.552-.816 2.688-1.44 3.408-.608.704-1.416 1.056-2.424 1.056-.832 0-1.512-.128-2.04-.384V24c.368.16.752.24 1.152.24.288 0 .552-.144.792-.432.24-.288.464-.808.672-1.56.224-.752.424-1.8.6-3.144.176-1.36.336-3.096.48-5.208h9.912V27zm21.829-6.576c0 2.176-.552 3.856-1.656 5.04-1.104 1.184-2.6 1.776-4.488 1.776-1.616 0-2.968-.456-4.056-1.368-1.088-.928-1.744-2.352-1.968-4.272h-2.352V27h-3.576V13.896h3.576v5.04h2.4c.24-1.696.896-3 1.968-3.912 1.072-.912 2.432-1.368 4.08-1.368 1.168 0 2.208.264 3.12.792.928.528 1.648 1.296 2.16 2.304.528 1.008.792 2.232.792 3.672zm-8.568 0c0 1.296.192 2.28.576 2.952.384.656 1.016.984 1.896.984.864 0 1.488-.328 1.872-.984.384-.672.576-1.656.576-2.952s-.192-2.264-.576-2.904c-.384-.656-1.016-.984-1.896-.984-.864 0-1.488.328-1.872.984-.384.64-.576 1.608-.576 2.904zm14.428-6.528v4.8c0 1.136.528 1.704 1.584 1.704a8.11 8.11 0 001.92-.216c.592-.16 1.184-.368 1.776-.624v-5.664h3.576V27h-3.576v-5.208c-.56.304-1.2.584-1.92.84-.72.24-1.536.36-2.448.36-1.36 0-2.448-.344-3.264-1.032-.816-.704-1.224-1.768-1.224-3.192v-4.872h3.576zm16.062 0v5.184c0 .272-.016.608-.048 1.008-.016.4-.04.808-.072 1.224a20.166 20.166 0 01-.144 1.776l6.048-9.192h4.296V27h-3.456v-5.232c0-.416.016-.888.048-1.416.032-.528.064-1.016.096-1.464.048-.464.08-.816.096-1.056L182.613 27h-4.296V13.896h3.456z" fill="#fff"/><path d="M20 14.5h1V11c0-2.205 1.795-4 4-4h10c2.205 0 4 1.795 4 4v15c0 2.205-1.795 4-4 4H25c-2.205 0-4-1.795-4-4v-3.363l-.445-.297-2.68-1.787-.483-.323-.519.26-4.48 2.24-3.088-2.058-.555-.37-.555.37-2.5 1.668L1 19.893v-3.57L4.646 14.5H20zm6.5 9v1h7v-12h-7v11z" stroke="#FF8200" stroke-width="2"/></svg>