<svg width="54" height="54" fill="none" xmlns="http://www.w3.org/2000/svg"><path opacity=".4" fill-rule="evenodd" clip-rule="evenodd" d="M23.681.08c-2.886.31-6.215 1.325-9.017 2.751C3.89 8.314-1.89 20.658.67 32.723 2.867 43.08 10.8 51.16 20.978 53.404c6.866 1.515 14.398.1 20.131-3.78 6.03-4.08 10.128-10.29 11.524-17.46.415-2.136.565-6.198.308-8.348C51.604 12.664 43.83 3.56 33.305.824 32.221.54 30.721.235 29.971.143c-1.265-.157-5.068-.195-6.29-.063zm6.82 2.616c1.057.182 3.755.91 3.904 1.053.032.031-1.514 3.648-2.843 6.652-.15.34-1.273 2.912-2.494 5.715-1.221 2.804-2.278 5.158-2.35 5.23-.071.074-.232-.03-.36-.231-.284-.445-7.526-17.07-7.526-17.276 0-.328 3.322-1.15 5.615-1.389 1.573-.164 4.331-.052 6.054.246zM19.47 15.583c2.413 5.476 4.497 10.043 4.63 10.15.282.222 4.676.275 5.008.06.185-.12 8.97-19.829 8.97-20.124 0-.274.325-.11 1.925.976 1.92 1.303 4.882 4.213 6.08 5.97l.771 1.135-6.244 12.73c-3.434 7.002-6.312 12.709-6.396 12.681-.198-.066-.516-.753-2.656-5.743a1206.51 1206.51 0 00-2.112-4.905l-.323-.734H23.88l-.194.425c-.247.538-3.158 7.496-3.978 9.507-.339.831-.692 1.486-.785 1.455-.255-.085-.362-.3-6.676-13.298l-5.886-12.12.592-.85c1.04-1.495 2.625-3.29 3.866-4.376 1.326-1.161 3.918-3.006 4.13-2.939.073.023 2.108 4.523 4.52 10zm-8.218 17.471c3.907 8 7.194 14.603 7.304 14.674.349.225.857.145 1.074-.17.115-.168 1.698-3.713 3.519-7.88 1.82-4.165 3.391-7.573 3.491-7.573.1 0 1.529 3.076 3.174 6.836 4.13 9.435 3.831 8.844 4.476 8.844h.53l7.17-14.676c5.329-10.908 7.204-14.613 7.305-14.431.257.462.874 2.847 1.137 4.39.311 1.833.354 5.302.087 7.106-.802 5.415-3.21 10.285-6.988 14.133-1.952 1.987-3.89 3.412-6.286 4.62C33.135 51 28.999 51.828 24.7 51.44c-5.997-.54-11.207-3.073-15.349-7.46-3.233-3.424-5.207-7.176-6.29-11.952-.499-2.195-.579-6.677-.164-9.115.3-1.761 1.004-4.402 1.173-4.402.044 0 3.276 6.544 7.182 14.543z" fill="#fff"/></svg>