<svg width="64" height="52" fill="none" xmlns="http://www.w3.org/2000/svg"><path fill-rule="evenodd" clip-rule="evenodd" d="M23.795.052c-5.126.406-6.57.562-8.134.875-4.036.81-6.303 2.617-7.301 5.82-.808 2.59-.752 11.981.107 17.973 1.257 8.768 2.953 11.124 8.84 12.282 3.013.592 6.635.796 14.118.796 12.283 0 16.57-.625 19.356-2.817 2.063-1.624 3.155-4.651 4.003-11.106.74-5.626.736-14.75-.008-17.128C53.517 2.714 50.66 1.1 43.431.335 41.404.121 25.775-.105 23.795.052zM41.08 1.75c2.514.205 5.372.628 6.65.984 1.33.37 2.933 1.468 3.627 2.482.962 1.409 1.263 2.643 1.522 6.24.386 5.369-.354 14.322-1.49 18.025-1.78 5.808-4.58 6.763-19.82 6.763-11.563 0-15.479-.615-17.663-2.774-1.84-1.82-2.704-4.756-3.442-11.697-.334-3.138-.33-11.008.008-13.022.891-5.323 3.547-6.619 14.78-7.215 3.654-.193 12.274-.077 15.828.214zM17.812 3.28c-.562.088-.563.09-.455 1.427.06.736.338 4.854.618 9.152.6 9.197 1.501 20.778 1.626 20.9.049.048 1.127.13 2.397.184l2.308.098.648-2.377c1.202-4.418 1.852-5.623 3.297-6.117 1.015-.347 5.618-.347 6.634 0 1.445.494 2.095 1.7 3.297 6.117l.647 2.377 2.309-.098c1.27-.053 2.35-.139 2.402-.189.126-.124.992-11.293 1.62-20.895.28-4.298.559-8.415.618-9.151l.108-1.338-1.08-.132c-.594-.073-1.348-.102-1.676-.065l-.597.068-1.163 5.008c-2.43 10.457-3.056 12.383-4.47 13.736-1.267 1.211-2.287 1.49-5.434 1.487-4.296-.005-5.71-.918-6.952-4.495-.498-1.434-2.173-8.078-3.337-13.232l-.565-2.504-1.118-.024c-.616-.014-1.373.015-1.682.063zm-1.37 41.637c-2.171.596-3.21 1.886-3.027 3.759.235 2.392 2.413 3.496 6.514 3.302 2.31-.109 3.56-.592 4.434-1.714.465-.597.557-.916.557-1.932 0-1.58-.547-2.375-2.123-3.081-1.447-.65-4.601-.815-6.354-.334zm-16.374.394c0 .36.11.5.392.5.993 0 1.04.113 1.04 2.505S1.453 50.82.46 50.82c-.282 0-.392.14-.392.501v.5h5.727v-.5c0-.389-.105-.5-.47-.5-.654 0-.962-.367-.962-1.143v-.66h4.32l-.064.85c-.056.762-.122.859-.625.915-.444.05-.563.168-.563.557v.493l2.813-.056c2.657-.052 2.812-.077 2.812-.456 0-.277-.158-.42-.51-.465-.282-.035-.627-.21-.768-.389-.29-.367-.356-3.79-.082-4.213.093-.142.436-.33.764-.415.398-.104.596-.285.596-.542 0-.36-.19-.39-2.812-.442l-2.813-.056v.481c0 .375.136.508.614.602.56.11.614.19.614.927v.806H4.363v-.661c0-.776.308-1.142.962-1.142.365 0 .47-.112.47-.501v-.5H.068v.5zm25.363-.025c0 .37.139.503.62.597l.62.122-.057 2.357-.058 2.358-.562.063c-.442.05-.563.168-.563.551 0 .487.003.488 2.25.488h2.25v-.5c0-.425-.095-.502-.62-.502-.34 0-.667-.12-.724-.266-.057-.147-.078-1.048-.045-2.003l.06-1.737 1.936 2.504 1.936 2.504h4.002v-2.884c0-3.066.02-3.126 1.04-3.126.284 0 .393-.141.393-.508v-.507l-2.301.057c-2.211.054-2.304.074-2.367.507-.053.364.033.45.446.45.934 0 1.135.43 1.008 2.154-.063.854-.139 1.581-.169 1.616-.029.035-.9-1.024-1.934-2.354l-1.88-2.417h-5.28v.476zm12.97-.2c-.172.44.028.657.73.795l.619.121v2.169c0 2.303-.126 2.65-.962 2.65-.369 0-.47.11-.47.514v.514l4.55-.063c4.414-.062 4.58-.08 5.472-.565 1.026-.558 1.841-1.845 1.841-2.905 0-1.124-.81-2.339-1.936-2.9-.977-.486-1.184-.508-5.37-.57-3.752-.055-4.37-.022-4.474.24zm13.621.22c0 .365.11.506.393.506.582 0 1.04.212 1.04.482 0 .3-2.424 4.174-2.736 4.373-.127.08-.438.148-.691.15-.354.002-.46.12-.46.504v.5h4.5v-.5c0-.4-.102-.5-.512-.5-.356 0-.51-.11-.51-.361 0-.704.424-.842 2.59-.842 1.897 0 2.12.04 2.32.405.285.52.103.797-.525.797-.396 0-.5.104-.5.501v.5h6.137v-.5c0-.423-.096-.5-.617-.5-.569 0-.774-.233-2.608-2.956l-1.991-2.955-2.915-.055-2.915-.056v.507zm-31.284.913c.932.488 1.3 2.271.703 3.403-.415.785-.946 1.03-2.261 1.04-1.89.017-2.666-.838-2.486-2.735.134-1.412.77-1.915 2.422-1.915.675 0 1.406.093 1.622.207zm25.529.367c.806.789.694 3.177-.17 3.63-.214.112-1.085.204-1.936.204h-1.548v-4.208h1.637c1.323 0 1.709.072 2.017.374zm9.897.7c.31.48.563.93.563 1.001 0 .071-.552.13-1.227.13s-1.228-.042-1.228-.093c0-.166 1.12-1.911 1.226-1.91.057 0 .357.392.666.872z" fill="#7C7C7C"/></svg>