<svg viewBox="0 0 23 13" fill="none" xmlns="http://www.w3.org/2000/svg"><mask id="path-1-inside-1" fill="#fff"><path d="M11.5 0C7.106 0 3.12 2.28.18 5.982a.828.828 0 000 1.031C3.12 10.72 7.106 13 11.5 13s8.38-2.28 11.32-5.982a.828.828 0 000-1.031C19.88 2.28 15.894 0 11.5 0zm.315 11.077c-2.917.174-5.326-2.105-5.142-4.876.15-2.284 2.103-4.135 4.512-4.278 2.917-.174 5.326 2.105 5.142 4.876-.155 2.28-2.108 4.131-4.512 4.278zm-.146-2.114c-1.571.093-2.87-1.134-2.766-2.624.08-1.23 1.134-2.226 2.432-2.306 1.572-.094 2.87 1.133 2.767 2.623-.085 1.236-1.139 2.23-2.433 2.307z"/></mask><path d="M11.5 0C7.106 0 3.12 2.28.18 5.982a.828.828 0 000 1.031C3.12 10.72 7.106 13 11.5 13s8.38-2.28 11.32-5.982a.828.828 0 000-1.031C19.88 2.28 15.894 0 11.5 0zm.315 11.077c-2.917.174-5.326-2.105-5.142-4.876.15-2.284 2.103-4.135 4.512-4.278 2.917-.174 5.326 2.105 5.142 4.876-.155 2.28-2.108 4.131-4.512 4.278zm-.146-2.114c-1.571.093-2.87-1.134-2.766-2.624.08-1.23 1.134-2.226 2.432-2.306 1.572-.094 2.87 1.133 2.767 2.623-.085 1.236-1.139 2.23-2.433 2.307z" stroke="#b5b1b1" stroke-width="2.8" mask="url(#path-1-inside-1)"/></svg>