<svg width="22" height="15" fill="none" xmlns="http://www.w3.org/2000/svg"><path d="M12.633 0v1.29h2.024v1.725h-1.95l-.73 1.19h-6.16a4.257 4.257 0 00-2.938-1.19H0v4.453h2.194l.85 1.072a3.186 3.186 0 00-2.257 3.043 3.184 3.184 0 003.18 3.18 3.188 3.188 0 003.075-2.364h7.522l.001-.643a4.32 4.32 0 011.071-2.842l.653.745a3.164 3.164 0 00-.65 1.924 3.184 3.184 0 003.18 3.18A3.184 3.184 0 0022 11.583a3.184 3.184 0 00-3.18-3.18 3.16 3.16 0 00-1.56.41l-.642-.734a4.311 4.311 0 012.76-.628l.713.077V3.854A3.858 3.858 0 0016.237 0h-3.603zm-1.445 5.494l-.671 1.096H7.716l-.847-1.096h4.319zm-7.22 7.98a1.893 1.893 0 01-1.892-1.891c0-1.04.844-1.886 1.882-1.891l1.85 2.33a1.894 1.894 0 01-1.84 1.452zm9.346-2.364H6.73L2.816 6.179H1.29V4.304h1.59c.903 0 1.771.427 2.323 1.141l1.88 2.434h4.157l2.19-3.575h2.517V1.29h.292A2.567 2.567 0 0118.8 3.748h-1.191v1.29h1.194v1.1a5.64 5.64 0 00-5.488 4.973zm5.506 2.364a1.893 1.893 0 01-1.652-2.81l1.251 1.428.97-.85-1.248-1.424a1.893 1.893 0 012.57 1.765 1.893 1.893 0 01-1.891 1.89z"/></svg>