<svg viewBox="0 0 30 26" fill="none" xmlns="http://www.w3.org/2000/svg"><path d="M1 1l4.88.697a2 2 0 011.683 1.614L7.97 5.5m0 0l1.576 10.011A2 2 0 0011.52 17.2h12.217a2 2 0 001.94-1.515L28 6.4 7.97 5.5z" stroke="#2C2C2C" stroke-width="2"/><circle cx="12.7" cy="22.6" r="1.7" stroke="#2C2C2C" stroke-width="2"/><circle cx="22.6" cy="22.6" r="1.7" stroke="#2C2C2C" stroke-width="2"/><path d="M1 1l4.88.697a2 2 0 011.683 1.614L7.97 5.5m0 0l1.576 10.011A2 2 0 0011.52 17.2h12.217a2 2 0 001.94-1.515L28 6.4 7.97 5.5z" stroke="#2C2C2C" stroke-width="2"/></svg>