<svg width="17" height="17" fill="none" xmlns="http://www.w3.org/2000/svg"><path d="M15.512 12.864l-2.33-2.322c-.464-.46-1.232-.446-1.712.032l-1.174 1.17c-.074-.04-.15-.083-.231-.129-.741-.409-1.756-.97-2.823-2.034-1.07-1.067-1.634-2.08-2.046-2.819l-.126-.226.788-.783.387-.387c.48-.48.494-1.245.031-1.707l-2.33-2.322c-.462-.461-1.23-.447-1.712.032l-.656.658.018.018a3.78 3.78 0 00-.541.951 3.933 3.933 0 00-.24.965c-.308 2.541.857 4.864 4.02 8.016 4.37 4.357 7.893 4.028 8.045 4.011a3.95 3.95 0 00.97-.242c.347-.135.67-.319.951-.537l.015.012.665-.649c.48-.48.494-1.245.03-1.708z" stroke="#fff" stroke-width="1.4"/></svg>