<svg width="19" height="19" fill="none" xmlns="http://www.w3.org/2000/svg"><g clip-path="url(#clip0)"><path d="M18.004 14.97a1.37 1.37 0 00-.06-.126c-.304-.6-.886-1.338-1.745-2.212l-.018-.02-.01-.01-.008-.01h-.01c-.39-.407-.636-.68-.74-.82-.189-.267-.231-.537-.128-.811.073-.207.348-.644.823-1.311.25-.354.447-.637.593-.851 1.054-1.535 1.511-2.515 1.371-2.943l-.054-.1c-.037-.06-.131-.114-.283-.165-.153-.05-.348-.058-.585-.024l-2.632.02c-.042-.017-.103-.016-.182.004l-.12.03-.045.026-.036.03a.424.424 0 00-.101.105.708.708 0 00-.091.175 17.09 17.09 0 01-.978 2.252c-.225.414-.432.772-.621 1.076a5.144 5.144 0 01-.475.67 3.442 3.442 0 01-.348.346c-.103.086-.182.123-.237.11a5.733 5.733 0 01-.155-.04.647.647 0 01-.206-.246 1.177 1.177 0 01-.105-.39 4.707 4.707 0 01-.032-.405 9.317 9.317 0 01.005-.48c.006-.208.009-.348.009-.421 0-.254.004-.529.013-.826l.023-.705c.006-.174.01-.357.01-.551 0-.193-.011-.345-.033-.455a1.663 1.663 0 00-.095-.32.528.528 0 00-.188-.24 1.005 1.005 0 00-.306-.136c-.323-.08-.734-.123-1.233-.13-1.133-.013-1.861.067-2.184.24a1.255 1.255 0 00-.347.3c-.11.147-.125.227-.046.24.366.06.624.204.777.43l.055.121c.042.087.085.24.128.46.042.22.07.464.082.73.03.488.03.905 0 1.252s-.06.617-.087.81a1.743 1.743 0 01-.233.691.166.166 0 01-.046.05.63.63 0 01-.246.05c-.086 0-.19-.046-.311-.14a2.287 2.287 0 01-.38-.385 5.174 5.174 0 01-.442-.686c-.165-.293-.335-.64-.512-1.04l-.146-.29a25.984 25.984 0 01-.375-.817 16.516 16.516 0 01-.42-1.036.657.657 0 00-.22-.32l-.045-.03a.906.906 0 00-.356-.15l-2.504.02c-.256 0-.43.063-.52.19l-.037.06a.35.35 0 00-.028.16c0 .074.019.164.055.27A34.5 34.5 0 001.796 8.97c.429.874.802 1.578 1.119 2.112.316.534.64 1.037.968 1.511.33.474.547.777.653.91.107.134.19.234.252.301l.228.24c.146.16.361.352.644.576.284.223.597.444.941.66.345.217.745.394 1.202.53.457.138.901.193 1.334.166h1.05c.214-.02.375-.093.485-.22l.036-.05a.7.7 0 00.069-.185c.021-.084.032-.175.032-.275a3.605 3.605 0 01.059-.776 2.18 2.18 0 01.155-.52 1.276 1.276 0 01.353-.44.56.56 0 01.072-.036c.146-.053.319-.002.517.155s.383.35.557.581c.174.23.382.489.626.776.244.287.457.5.64.64l.182.12c.122.08.28.154.475.22a.939.939 0 00.512.05l2.339-.04c.231 0 .411-.041.539-.125.128-.083.204-.175.228-.275a.846.846 0 00.005-.34 1.352 1.352 0 00-.064-.265z" fill="#fff"/></g><defs><clipPath id="clip0"><path fill="#fff" transform="translate(.548 .678)" d="M0 0h17.548v17.548H0z"/></clipPath></defs></svg>