<svg width="44" height="48" fill="none" xmlns="http://www.w3.org/2000/svg"><path stroke="#FF8200" stroke-width="2" d="M6 6h9v6H6z"/><path d="M37.781 11.188C37.344 9.874 36.031 9 34.72 9H10.656c-1.531 0-2.625.875-3.062 2.188L3 24.312v17.5C3 43.126 3.875 44 5.188 44h2.187c1.313 0 2.188-.875 2.188-2.187v-2.188h26.25v2.188c0 1.312.875 2.187 2.187 2.187h2.188c1.312 0 2.187-.875 2.187-2.187v-17.5l-4.594-13.125zM10.656 33.063c-1.75 0-3.281-1.532-3.281-3.282s1.531-3.28 3.281-3.28c1.75 0 3.281 1.53 3.281 3.28 0 1.75-1.53 3.282-3.28 3.282zM7.375 22.125l3.281-9.844H34.72L38 22.125H7.375z" stroke="#FF8200" stroke-width="2"/><path d="M1.1 18.025V4.5c0-1.863 1.536-3.4 3.465-3.4H15.98c1.929 0 3.465 1.537 3.465 3.4v13.525H13.86v25.464l-7.743 2.92v-3.367l2.215-3.87.312-.547-.312-.546L6.284 34.5l2.048-3.579.312-.546-.312-.546-2.215-3.871v-7.933H1.1z" fill="#fff" stroke="#FF8200" stroke-width="2.2"/></svg>