<svg width="49" height="51" viewBox="0 0 52 52" fill="none" xmlns="http://www.w3.org/2000/svg"><path d="M26.671 29.158l-6.817-6.83a1.132 1.132 0 00-1.595 0L14.2 26.381a1.127 1.127 0 000 1.591l.69.689L.44 43.098a1.128 1.128 0 00-.327.78L0 49.87A1.13 1.13 0 001.13 51h4.75c.3.002.589-.116.802-.327l2.668-2.664c.204-.205.321-.48.328-.768l.068-2.416 1.933.237a1.13 1.13 0 00.939-.327l1.684-1.637c.186-.184.302-.428.328-.688l.215-2.258 2.759-.61a1.13 1.13 0 00.87-.903l.554-3.059 2.963-.462c.235-.038.453-.148.621-.316l4.06-4.053a1.127 1.127 0 000-1.591z"/><path d="M26.671 29.158l-6.817-6.83a1.132 1.132 0 00-1.595 0L14.2 26.381a1.127 1.127 0 000 1.591l.69.689L.44 43.098a1.128 1.128 0 00-.327.78L0 49.87A1.13 1.13 0 001.13 51h4.75c.3.002.589-.116.802-.327l2.668-2.664c.204-.205.321-.48.328-.768l.068-2.416 1.933.237a1.13 1.13 0 00.939-.327l1.684-1.637c.186-.184.302-.428.328-.688l.215-2.258 2.759-.61a1.13 1.13 0 00.87-.903l.554-3.059 2.963-.462c.235-.038.453-.148.621-.316l4.06-4.053a1.127 1.127 0 000-1.591z" stroke-width="2" stroke="#FF8200"/><path d="M46.868 11.345l-9.232-9.242a5.962 5.962 0 00-9.09 0l-13.818 13.85a2.578 2.578 0 000 3.592l14.69 14.725a2.563 2.563 0 003.584 0l13.866-13.815c2.843-2.85 2.843-6.25 0-9.11zm-5.153 5.918a1.128 1.128 0 01-.018.02l.011.047a1.192 1.192 0 01-1.683 0l-8.301-8.32a1.2 1.2 0 01-.13-1.688 1.192 1.192 0 011.814 0l8.289 8.249a1.2 1.2 0 01.018 1.693z"/><path d="M46.868 11.345l-9.232-9.242a5.962 5.962 0 00-9.09 0l-13.818 13.85a2.578 2.578 0 000 3.592l14.69 14.725a2.563 2.563 0 003.584 0l13.866-13.815c2.843-2.85 2.843-6.25 0-9.11zm-5.153 5.918a1.128 1.128 0 01-.018.02l.011.047a1.192 1.192 0 01-1.683 0l-8.301-8.32a1.2 1.2 0 01-.13-1.688 1.192 1.192 0 011.814 0l8.289 8.249a1.2 1.2 0 01.018 1.693z" stroke-width="2" stroke="#FF8200"/></svg>