<svg width="52" height="52" fill="none" xmlns="http://www.w3.org/2000/svg"><g clip-path="url(#clip0)" fill="#FF8200"><path d="M50.208 4.734l-3.125-3.125c-2.038-2.037-5.471-2.156-7.654-.264l-5.492 4.76a.883.883 0 00-.178.213l-5.346 8.904-3.433 1.144a.882.882 0 00-.344 1.461l9.354 9.354a.882.882 0 001.46-.345l1.145-3.433 9.035-5.456a.885.885 0 00.212-.179l4.648-5.386c1.881-2.18 1.755-5.611-.282-7.648zm-1.054 6.496l-4.556 5.28-9.193 5.55a.882.882 0 00-.38.477l-.797 2.388-2.108-2.108v-.001L29 19.698v-.001l-2.11-2.108 2.389-.796a.883.883 0 00.477-.383L35.2 7.346l5.385-4.668c1.498-1.299 3.854-1.219 5.252.179L48.96 5.98c1.398 1.398 1.485 3.753.193 5.249z"/><path d="M47.707 35.437a9.705 9.705 0 00-9.853-2.37L19.11 14.323A9.705 9.705 0 006.336 2.297a.882.882 0 00-.302 1.444l5.61 5.61-3.742 3.742-5.61-5.61a.883.883 0 00-1.445.302 9.705 9.705 0 0012.027 12.774l7.008 7.01-8.728 8.727-5.55 3.104a.882.882 0 00-.36.375l-2.494 4.99a.88.88 0 00.166 1.017l3.118 3.119a.882.882 0 001.018.165l4.989-2.495a.882.882 0 00.375-.358l3.104-5.551 8.728-8.728 7.37 7.37A9.705 9.705 0 0044.392 51.33a.882.882 0 00.302-1.445l-5.61-5.61 3.741-3.742 5.61 5.61a.881.881 0 001.445-.301 9.705 9.705 0 00-2.173-10.405zM14.186 39.5a.88.88 0 00-.146.193l-3.031 5.421-4.177 2.089-2.22-2.22 2.089-4.177 5.42-3.03a.883.883 0 00.194-.147l8.815-8.814 1.87 1.87-8.814 8.815zm34.448 4.346l-5.185-5.185a.882.882 0 00-1.247 0l-4.99 4.99a.882.882 0 000 1.246l5.186 5.186a7.943 7.943 0 01-8.941-10.688.882.882 0 00-.198-.946L13.727 18.918a.882.882 0 00-.946-.198A7.942 7.942 0 012.094 9.78l5.185 5.184a.882.882 0 001.247 0l4.989-4.988a.882.882 0 000-1.248L8.33 3.543a7.94 7.94 0 018.94 10.688.882.882 0 00.198.945L37.001 34.71c.248.247.62.325.945.197a7.942 7.942 0 0110.688 8.941z"/></g><defs><clipPath id="clip0"><path fill="#fff" d="M0 0h52v52H0z"/></clipPath></defs></svg>