<svg width="49" height="51" fill="none" xmlns="http://www.w3.org/2000/svg"><path d="M14.63 42.41l.215-2.258 2.759-.61 4.23-5.412-2.96.462-.703.11-.127.7-.554 3.06h0a.13.13 0 01-.1.104h-.002l-2.759.61-.71.157-.07.724-.214 2.253.995.1zm0 0c-.026.26-.142.504-.328.688m.328-.688l-.328.688m0 0l-1.684 1.637a1.132 1.132 0 01-.939.328l2.623-1.965zm-14.189.78L0 49.87A1.13 1.13 0 001.13 51h4.75c.3.002.589-.116.802-.327l2.668-2.664-9.237-4.132zm0 0a1.13 1.13 0 01.328-.78l-.328.78zm21.793-9.785a.13.13 0 01-.071.037l-8.2 8.182a.128.128 0 01-.035.075l-1.68 1.63-.006.008-.007.007a.132.132 0 01-.108.038h-.001l-1.93-.237-1.09-.134-.032 1.098-.068 2.416v.004a.127.127 0 01-.036.086s0 0 0 0l-2.664 2.659s0 0 0 0a.132.132 0 01-.093.038v0H1.13a.13.13 0 01-.13-.124l.112-5.98v-.004c0-.033.014-.065.037-.088 0 0 0 0 0 0l14.447-14.436.708-.707-.708-.708-.688-.686s0 0 0 0a.127.127 0 010-.18s0 0 0 0l4.055-4.049s0 0 0 0a.132.132 0 01.184 0h.001l6.814 6.825s0 0 0 0a.128.128 0 010 .18l-4.057 4.05zm20.91-16.454l-.402.4a2.192 2.192 0 01-3.095 0l-.002-.002-8.278-8.297a2.2 2.2 0 01-.206-3.067 2.192 2.192 0 013.096-.24l8.887 11.206zm0 0l-.036-.145m.036.145l-.036-.145m0 0a2.2 2.2 0 00-.383-2.638l-8.26-8.218a2.185 2.185 0 00-.208-.205l8.851 11.061zM36.874 2.751l.026.03.028.028 9.23 9.24.001.001C47.441 13.34 48 14.664 48 15.904c0 1.24-.56 2.56-1.84 3.844 0 0 0 0 0 0L32.303 33.555c0 .002-.002.003-.003.004-.607.59-1.571.59-2.179 0l-14.68-14.714a1.578 1.578 0 010-2.19L29.255 2.81l.028-.028.026-.03a4.76 4.76 0 01.558-.56h0a4.962 4.962 0 017.007.56z" stroke="#FF8200" stroke-width="2"/></svg>