<svg width="39" height="52" fill="none" xmlns="http://www.w3.org/2000/svg"><path fill-rule="evenodd" clip-rule="evenodd" d="M17.142 2.625a5.787 5.787 0 01-6.062 1.78 1.787 1.787 0 00-2.285 1.468 5.787 5.787 0 01-4.137 4.775 1.787 1.787 0 00-1.128 2.47 5.787 5.787 0 01-.9 6.254c-.723.825-.54 2.1.387 2.688a5.787 5.787 0 012.625 5.747A1.787 1.787 0 007.42 29.86c.415-.003.823.039 1.219.121l.021-.04.145.078a5.788 5.788 0 013.93 3.256 1.787 1.787 0 002.606.765 5.787 5.787 0 016.318 0c.92.6 2.156.236 2.606-.765a5.787 5.787 0 015.314-3.415 1.787 1.787 0 001.78-2.053 5.787 5.787 0 012.624-5.747 1.787 1.787 0 00.386-2.688 5.787 5.787 0 01-.899-6.253 1.787 1.787 0 00-1.128-2.47 5.787 5.787 0 01-4.137-4.776 1.787 1.787 0 00-2.285-1.468 5.787 5.787 0 01-6.062-1.78 1.787 1.787 0 00-2.716 0zM7.638 31.864a3.786 3.786 0 00-.205-.004 3.787 3.787 0 01-3.769-4.35 3.787 3.787 0 00-1.718-3.76 3.787 3.787 0 01-.819-5.697 3.787 3.787 0 00.589-4.092 3.787 3.787 0 012.39-5.235A3.787 3.787 0 006.815 5.6a3.787 3.787 0 014.841-3.111 3.787 3.787 0 003.967-1.165 3.787 3.787 0 015.756 0 3.787 3.787 0 003.966 1.165A3.787 3.787 0 0130.186 5.6a3.787 3.787 0 002.707 3.125 3.787 3.787 0 012.391 5.235 3.787 3.787 0 00.589 4.092 3.787 3.787 0 01-.82 5.696 3.787 3.787 0 00-1.717 3.761 3.789 3.789 0 01-3.006 4.278l6.999 13.164.68 1.277-1.436.184-4.397.564-2.925 3.33-.955 1.086-.68-1.277-7.87-14.803a3.79 3.79 0 00-1.376-.209l.003.002-7.981 15.01-.68 1.277-.954-1.087-2.926-3.33-4.397-.563L0 46.23l.68-1.277 6.958-13.088zm7.92 4.275L9.305 47.9l-2.332-2.653.018-.137-.156-.02-.103-.118-.104.091-3.504-.449 6.44-12.112c.578.387 1.05.933 1.347 1.594a3.79 3.79 0 004.647 2.044zM28.703 47.9l-6.151-11.57a3.786 3.786 0 003.537-2.235 3.787 3.787 0 012.139-2l6.656 12.518-3.504.45-.104-.092-.103.118-.156.02.018.137-2.332 2.654zM18.5 26.963a8.5 8.5 0 100-17 8.5 8.5 0 000 17zm0 2c5.799 0 10.5-4.7 10.5-10.5 0-5.799-4.701-10.5-10.5-10.5S8 12.663 8 18.462c0 5.8 4.701 10.5 10.5 10.5zm-1.037-7.28l6.23-6-1.387-1.44-5.537 5.332-.015-.015-.006-.006-.007-.006-.006-.006-.007-.006-.104-.1-.053-.051-.053-.051-.106-.103-.107-.103-.215-.206-.106-.103-.053-.05-.026-.026-.013-.012-.013-.013-.205-.197-.1-.096-.005-.006-.006-.006-.006-.006-.007-.005-.012-.012-.006-.006-.006-.006-.047-.046-.35-.336-.019-.019-.01-.009-.01-.01-.009-.008-.004-.005-.005-.004-.018-.018-.071-.068-.009-.008-.008-.008-.016-.016-.016-.016-.016-.015-.008-.007-.008-.008-.007-.007-.004-.003-.003-.004-.015-.014-.003-.003-.004-.004-.007-.006-.098-.094-.02-.02-.017-.017-.03-.029-1.388 1.441.002.001.002.002.003.003.002.002.002.002.001.002.002.001.016.016.038.036.017.017.016.015.003.003.003.003.003.003.003.003.026.024.027.026.059.057.031.03.004.004.004.004.005.004.004.004.016.016.018.017.004.004.004.004.005.005.004.004.018.017.005.004.004.005.01.009.075.073.005.005.005.004.005.005.005.005.005.005.005.004.01.01.02.02.01.01.006.005.005.005.01.01.011.01.005.005.006.005.01.01.044.042.044.043.045.043.046.045.006.005.006.006.012.011.023.023.024.023.024.023.006.006.006.005.012.012.012.012.013.012.049.047.05.048.205.198.026.025.026.025.053.05.106.103.214.206.054.052.053.052.107.102.053.051.053.05.052.051.052.05.735.708.693.668.694-.668z" fill="#FF8200"/></svg>