<svg width="21" height="19" fill="none" xmlns="http://www.w3.org/2000/svg"><g clip-path="url(#clip0)"><path d="M18.346 4.646c-.16-1.517-.417-2.698-.822-3.162-1.67-1.908-13.368-2.048-14.696 0-.325.502-.553 1.679-.706 3.164-.493.056-.877.457-.877.948v1.858a.96.96 0 00.65.898c-.09 2.926-.018 5.979.117 7.497 0 1.172.815.978.815.978h.765v1.265c0 .502.536.908 1.196.908.661 0 1.197-.406 1.197-.908v-1.265h8.895v1.265c0 .502.536.908 1.197.908.66 0 1.196-.406 1.196-.908v-1.265h.251s.96.127 1.022-.425c0-1.514.099-4.87.017-8.037a.958.958 0 00.696-.91v-1.86c0-.502-.402-.91-.913-.95zM5.685 1.756h8.982v1.312H5.685V1.756zm.128 13.577c-.705 0-1.277-.552-1.277-1.233 0-.68.572-1.232 1.277-1.232S7.09 13.42 7.09 14.1c0 .68-.571 1.233-1.277 1.233zm8.806 0c-.704 0-1.277-.552-1.277-1.233 0-.68.572-1.232 1.277-1.232.706 0 1.277.552 1.277 1.232 0 .68-.572 1.233-1.277 1.233zm1.623-5.394H4.11V3.796h12.133v6.143z" fill="#fff"/></g><defs><clipPath id="clip0"><path fill="#fff" transform="translate(.41)" d="M0 0h19.683v19H0z"/></clipPath></defs></svg>