<svg width="24" height="22" fill="none" xmlns="http://www.w3.org/2000/svg"><g clip-path="url(#clip0)"><path d="M23.33 12.011a2.8 2.8 0 00-.283-1.224 3.864 3.864 0 00-.068-.29L21 5.763l-.013-.043c-.692-1.99-1.678-3.833-4.177-3.833H7.253c-2.56 0-3.465 1.888-4.173 3.822l-2.07 4.748c-.3.463-.47.992-.47 1.555v1.474c0 .228.027.45.08.665-.051.13-.08.27-.08.417v4.383c0 .643.54 1.164 1.205 1.164h2.502c.666 0 1.205-.52 1.205-1.164V16.76h13.109v2.191c0 .643.54 1.164 1.206 1.164h2.358c.666 0 1.206-.52 1.206-1.164v-4.383c0-.147-.03-.287-.08-.417.052-.215.08-.437.08-.665v-1.473zM4.55 6.184C5.337 4.037 5.97 3.38 7.252 3.38h9.555c1.273 0 1.981.731 2.701 2.793L20.954 9a4.565 4.565 0 00-1.536-.262H4.452c-.49 0-.96.076-1.393.214l1.49-2.768zm1.24 7.86H3.15c-.475 0-.86-.372-.86-.83 0-.46.385-.831.86-.831h2.64c.476 0 .861.372.861.83 0 .46-.386.832-.86.832zm9.325-.166h-6.14a.536.536 0 01-.545-.526c0-.29.244-.526.545-.526h6.14c.302 0 .546.235.546.526 0 .29-.244.526-.546.526zm5.538.167h-2.64c-.475 0-.86-.373-.86-.831 0-.46.385-.831.86-.831h2.64c.476 0 .861.372.861.83 0 .46-.385.832-.86.832z" fill="#EFEFEF"/></g><defs><clipPath id="clip0"><path fill="#fff" transform="translate(.54)" d="M0 0h22.791v22H0z"/></clipPath></defs></svg>