<svg width="24" height="24" fill="none" xmlns="http://www.w3.org/2000/svg"><path d="M.444 4h1.334v1.778c0 .245.198.444.444.444h5.334A.444.444 0 008 5.778V4h15.556a.444.444 0 100-.89H8V1.334A.444.444 0 007.556.89H2.222a.444.444 0 00-.444.444v1.778H.444a.444.444 0 100 .889zm2.223-2.222H7.11v3.555H2.667V1.778zm20.889 9.777H15.11V9.777a.444.444 0 00-.444-.444H9.333a.444.444 0 00-.444.444v1.778H.444a.444.444 0 100 .89H8.89v1.777c0 .246.199.444.444.444h5.334a.444.444 0 00.444-.444v-1.778h8.445a.444.444 0 100-.889zm-9.334 2.223H9.778v-3.556h4.444v3.556zM23.556 20h-1.334v-1.778a.444.444 0 00-.444-.445h-5.334a.444.444 0 00-.444.445V20H.444a.444.444 0 100 .889H16v1.777c0 .246.199.445.444.445h5.334a.444.444 0 00.444-.445V20.89h1.334a.444.444 0 100-.89zm-2.223 2.222H16.89v-3.556h4.444v3.556z" fill="#252525"/></svg>