<svg width="24" height="24" fill="none" xmlns="http://www.w3.org/2000/svg"><path d="M14.25 8.625a.375.375 0 100-.75.375.375 0 000 .75zm-4.5 0a.375.375 0 100-.75.375.375 0 000 .75z" fill="#252525"/><path d="M18.421 17.733l-3.847-1.574a1.121 1.121 0 01-.699-1.041v-.27a6.942 6.942 0 002.67-3.598H18c.62 0 1.125-.505 1.125-1.125v-1.5c0-.488-.315-.9-.75-1.056V6.75A6.382 6.382 0 0012 .375 6.382 6.382 0 005.625 6.75v.819c-.435.155-.75.568-.75 1.056v2.625c0 1.034.841 1.875 1.875 1.875h1.636a6.935 6.935 0 001.739 1.723v.27c0 .459-.274.867-.699 1.04l-3.847 1.575a5.94 5.94 0 00-3.704 5.517v.375h20.25v-.375a5.94 5.94 0 00-3.704-5.517zm-9.796-.436l.024-.01 1.214 3.338H9a.375.375 0 01-.375-.375v-2.953zM12 18.586l1.7 2.039h-3.4l1.7-2.04zm3.375-1.289v2.953a.375.375 0 01-.375.375h-.863l1.214-3.337.024.01zm-.719-.294l-.91 2.506-1.205-1.446 1.667-1.25c.028.013.054.029.082.04l.367.15zm3.719-6.878A.376.376 0 0118 10.5h-1.265a6.97 6.97 0 00.14-1.368V8.25H18c.207 0 .375.168.375.375v1.5zm-6.375-9a5.631 5.631 0 015.625 5.625v.75h-.75V5.48l-.493.164c-.023.008-2.222.731-4.382.731-2.16 0-4.36-.723-4.381-.73l-.494-.165V7.5h-.75v-.75A5.631 5.631 0 0112 1.125zm-6.375 7.5c0-.207.168-.375.375-.375h1.125v.882c0 .466.051.923.14 1.368H6a.376.376 0 01-.375-.375v-1.5zm1.125 3.75c-.62 0-1.125-.505-1.125-1.125v-.069c.118.042.243.069.375.069h1.455c.125.39.284.766.474 1.125H6.75zm2.58.75h.864c.156.435.568.75 1.056.75h1.5a1.126 1.126 0 000-2.25h-1.5c-.488 0-.9.315-1.056.75H8.79a6.195 6.195 0 01-.915-3.243V6.504c.799.224 2.45.621 4.125.621 1.675 0 3.326-.397 4.125-.62v2.627A6.197 6.197 0 0112 14.978a6.19 6.19 0 01-2.67-1.853zm1.545-.375c0-.207.168-.375.375-.375h1.5a.375.375 0 010 .75h-1.5a.375.375 0 01-.375-.375zm1.007 2.98l.118.04.118-.04a7.015 7.015 0 001.02-.431c.038.393.194.756.445 1.045L12 17.531l-1.583-1.187c.25-.29.407-.652.444-1.046.324.17.665.314 1.02.432zM9.71 16.854c.029-.011.054-.027.082-.04l1.668 1.25-1.205 1.445-.911-2.505.366-.15zm-7.072 6.022a5.186 5.186 0 012.987-4.34v4.34H2.638zm3.737 0v-4.657l1.5-.614v2.646c0 .62.505 1.125 1.125 1.125h6c.62 0 1.125-.505 1.125-1.125v-2.646l1.5.614v4.657H6.375zm12 0v-4.34a5.186 5.186 0 012.987 4.34h-2.987z" fill="#252525"/><path d="M16.433 4.718a4.838 4.838 0 00-.473-.812l-.609.438c.156.216.29.447.4.687l.682-.313zm-1.208-1.624A4.87 4.87 0 0012 1.875v.75c1.006 0 1.975.366 2.728 1.031l.497-.562z" fill="#252525"/></svg>