<svg width="25" height="21" fill="none" xmlns="http://www.w3.org/2000/svg"><path d="M24.569.586H.43a.43.43 0 00-.43.431v18.966a.43.43 0 00.431.431h24.138a.43.43 0 00.43-.431V1.017a.43.43 0 00-.43-.43zm-.431 18.966H.862V1.448h23.276v18.104z" fill="#000"/><path d="M6.896 10.129c1.324 0 2.4-1.077 2.4-2.4a2.402 2.402 0 00-2.4-2.401 2.403 2.403 0 00-2.4 2.4c0 1.324 1.077 2.4 2.4 2.4zm0-3.94a1.54 1.54 0 010 3.077A1.54 1.54 0 015.358 7.73c0-.848.69-1.54 1.538-1.54zM3.017 17.828a.43.43 0 00.285-.107l7.031-6.19 4.44 4.44a.43.43 0 10.61-.61l-2.072-2.072 3.957-4.334 4.854 4.45a.431.431 0 00.583-.636l-5.173-4.741a.432.432 0 00-.61.027l-4.22 4.623-2.045-2.044a.431.431 0 00-.59-.019l-7.335 6.458a.431.431 0 00.285.755z" fill="#000"/></svg>