<svg width="35" height="35" fill="none" xmlns="http://www.w3.org/2000/svg"><path d="M17.519 13.996a3.5 3.5 0 003.503-3.533 3.51 3.51 0 00-3.521-3.52 3.516 3.516 0 00-3.53 3.563 3.509 3.509 0 003.548 3.49z" fill="#EE8208"/><path fill-rule="evenodd" clip-rule="evenodd" d="M35 0H0v35h35V0zM24.692 10.563c.02-4.03-3.178-7.289-7.162-7.3-3.977-.011-7.208 3.203-7.231 7.19-.023 3.944 3.206 7.209 7.144 7.222 3.977.013 7.228-3.177 7.25-7.112zm-2.212 11.96c1.178-.459 2.239-1.112 3.12-2.017.574-.59.58-1.332.113-2.09-.41-.666-1.117-.945-1.879-.75-.391.1-.73.3-1.044.54-3.188 2.143-7.55 2.083-10.726-.1a3.421 3.421 0 00-.49-.288c-.88-.415-1.728-.22-2.232.503-.59.845-.515 1.665.23 2.381.154.148.325.28.494.411l.13.1c1.703 1.333 3.693 1.876 5.901 2.107l-.154.166-.014.016a6.182 6.182 0 01-.195.207l-.934.936a2852.715 2852.715 0 01-3.925 3.931c-.336.335-.576.708-.6 1.197-.035.723.413 1.442 1.117 1.784.664.32 1.344.22 1.915-.344a247.068 247.068 0 003.781-3.798c.312-.32.482-.39.835-.02.81.848 1.644 1.676 2.477 2.504.412.41.824.819 1.233 1.23.322.325.686.557 1.152.59.736.05 1.487-.42 1.822-1.137.307-.655.19-1.353-.366-1.916-1.046-1.057-2.097-2.11-3.148-3.163-.591-.592-1.183-1.184-1.773-1.777-.089-.09-.16-.17-.276-.295l-.106-.116c1.208-.144 2.428-.362 3.542-.793z" fill="#EE8208"/></svg>