<svg width="30" height="30" fill="none" xmlns="http://www.w3.org/2000/svg"><g opacity=".5" fill="#252525"><path d="M17.5 1.5h-5a.5.5 0 000 1h5a.5.5 0 000-1zm3.5 0h-.5a.5.5 0 000 1h.5a.5.5 0 000-1zm-5.379 24h-1.242c-.76 0-1.379.619-1.379 1.38v.241c0 .76.619 1.379 1.379 1.379h1.242c.76 0 1.379-.619 1.379-1.379v-.241c0-.761-.619-1.38-1.379-1.38zM16 27.121a.38.38 0 01-.379.379h-1.242a.38.38 0 01-.379-.379v-.241c0-.21.17-.38.38-.38h1.24c.21 0 .38.17.38.38v.241z"/><path d="M21.693 0H8.307A1.81 1.81 0 006.5 1.808v26.384A1.81 1.81 0 008.307 30h13.385a1.81 1.81 0 001.808-1.807V1.807A1.81 1.81 0 0021.693 0zm.807 28.192a.808.808 0 01-.807.808H8.307a.808.808 0 01-.807-.807V1.807c0-.445.362-.807.807-.807h13.385c.446 0 .808.363.808.808v26.384z"/><path d="M23 3H7a.5.5 0 00-.5.5v21a.5.5 0 00.5.5h16a.5.5 0 00.5-.5v-21A.5.5 0 0023 3zm-.5 21h-15V4h15v20z"/></g></svg>