<svg width="36" height="35" fill="none" xmlns="http://www.w3.org/2000/svg"><path fill-rule="evenodd" clip-rule="evenodd" d="M35.7 0H0v35h35.7V0zm-4.275 24.187c.257-1.114-1.159-2.208-1.812-2.86-.8-.8-2.357-1.768-2.418-2.764-.076-1.257 1.84-2.951 2.416-3.712.99-1.299 1.935-4.228 1.935-4.228l-6.041-.037s-2.152 5.418-4.671 6.713c-1.794-1.171.423-5.187-.887-6.63-.902-.992-6.482-.725-6.688.554.612.175 1.204.356 1.45.872.62 1.274.44 5.078-.561 5.204-.615.076-1.176-.862-1.532-1.341-.423-.578-.834-1.092-1.206-1.74-.439-.76-2.094-3.711-2.094-3.711l-5.16.017s1.81 4.46 3.062 6.538c2.584 4.287 5.514 8.706 12.81 7.58.466-1.223.055-3.016 1.368-3.08.73-.033 1.267.8 1.693 1.264.468.514.756.973 1.244 1.361 1.038.818 2.061.78 3.787.709 1.511-.06 3.068.314 3.305-.709z" fill="#4A76A8"/></svg>