<?xml version="1.0" encoding="utf-8"?><svg viewBox="0 0 50 45" xmlns="http://www.w3.org/2000/svg" xmlns:xlink="http://www.w3.org/1999/xlink"><style>:root>svg{display:none}:root>svg:target{display:block}</style><svg fill="none" viewBox="0 0 38 42" id="benefits-document" xmlns="http://www.w3.org/2000/svg"><circle cx="29" cy="23" r="8" stroke="#FF8200" stroke-width="2"/><path d="M24 30v10l5-2.472L34 40V30M19.293 34H1V12.25m0 0L12.2 1M1 12.25h11.2V1m0 0H29v9.375" stroke="#FF8200" stroke-width="2"/></svg><svg fill="none" viewBox="0 0 50 43" id="benefits-house" xmlns="http://www.w3.org/2000/svg"><path d="M49 21L25 2 1 21" stroke="#FF8200" stroke-width="2"/><path d="M6 17v25h38V17" stroke="#FF8200" stroke-width="2"/><path d="M24.514 15.127c.357-.889 1.615-.889 1.972 0a3.063 3.063 0 004.283 1.559c.845-.451 1.809.357 1.512 1.268A3.064 3.064 0 0034.56 21.9c.936.198 1.155 1.436.342 1.943a3.063 3.063 0 00-.791 4.488c.59.754-.039 1.843-.987 1.709a3.063 3.063 0 00-3.491 2.93c-.032.957-1.214 1.387-1.854.674a3.063 3.063 0 00-4.558 0c-.64.713-1.822.283-1.854-.674a3.063 3.063 0 00-3.491-2.93c-.948.134-1.577-.955-.987-1.709a3.063 3.063 0 00-.791-4.488c-.813-.507-.594-1.745.342-1.943a3.063 3.063 0 002.28-3.947c-.298-.91.666-1.719 1.51-1.268a3.063 3.063 0 004.284-1.56z" stroke="#FF8200" stroke-width="2"/><circle cx="25.5" cy="24.5" r="2.5" stroke="#FF8200" stroke-width="2"/></svg><svg fill="none" viewBox="0 0 42 40" id="benefits-like" xmlns="http://www.w3.org/2000/svg"><path d="M11.152 15.756V38.06H1V15.756h10.152zM40.69 22.634l-.014.028-.012.03-5.916 14.001-.001.002c-.444 1.033-1.476 1.76-2.631 1.76H14.361a2.957 2.957 0 01-2.945-2.946V15.782c0-.972.319-1.614.784-1.962l.057-.043.05-.05L24.652 1.381l1.37 1.245c.328.514.557 1.058.557 1.517v.484l-1.95 8.97-.264 1.212h13.669a2.96 2.96 0 012.908 2.474c-.101.166-.16.361-.16.57V21.7c0 .203 0 .401-.02.59-.02.201-.053.307-.071.344z" stroke="#FF8200" stroke-width="2"/><circle cx="4.5" cy="20.5" r="1" stroke="#FF8200"/></svg><svg fill="none" viewBox="0 0 41 45" id="benefits-shield" xmlns="http://www.w3.org/2000/svg"><mask id="da" fill="#fff"><path d="M21.27 9.217c.034.02 3.694 2.272 10.743 3.758.58.122.987.566.987 1.077C33 22.7 29.675 30.777 21.242 35.8a1.481 1.481 0 01-1.484 0c-5.224-3.112-8.58-7.495-10.33-12.55C8.361 20.167 8 17.296 8 14.052c0-.51.407-.954.987-1.076 7.1-1.496 10.707-3.736 10.743-3.758a1.478 1.478 0 011.54 0z"/></mask><path d="M21.27 9.217c.034.02 3.694 2.272 10.743 3.758.58.122.987.566.987 1.077C33 22.7 29.675 30.777 21.242 35.8a1.481 1.481 0 01-1.484 0c-5.224-3.112-8.58-7.495-10.33-12.55C8.361 20.167 8 17.296 8 14.052c0-.51.407-.954.987-1.076 7.1-1.496 10.707-3.736 10.743-3.758a1.478 1.478 0 011.54 0z" stroke="#FF8200" stroke-width="2" mask="url(#da)"/><mask id="db" fill="#fff"><path d="M21.763.36c.055.036 6.058 3.79 17.619 6.265.95.203 1.618.944 1.618 1.794 0 14.414-5.452 27.876-19.283 36.25a2.396 2.396 0 01-2.434 0c-8.567-5.187-14.072-12.492-16.94-20.916C.592 18.61 0 13.825 0 8.419c0-.85.668-1.59 1.618-1.794C13.263 4.13 19.178.398 19.237.36a2.391 2.391 0 012.526 0z"/></mask><path d="M21.763.36c.055.036 6.058 3.79 17.619 6.265.95.203 1.618.944 1.618 1.794 0 14.414-5.452 27.876-19.283 36.25a2.396 2.396 0 01-2.434 0c-8.567-5.187-14.072-12.492-16.94-20.916C.592 18.61 0 13.825 0 8.419c0-.85.668-1.59 1.618-1.794C13.263 4.13 19.178.398 19.237.36a2.391 2.391 0 012.526 0z" stroke="#FF8200" stroke-width="2" mask="url(#db)"/></svg><svg fill="none" viewBox="0 0 27 19" id="map-location" xmlns="http://www.w3.org/2000/svg"><path d="M18.576 10.583l-5.108 7.207-5.109-7.207C5.42 6.436 8.385.7 13.468.7c5.082 0 8.047 5.736 5.108 9.883z" stroke="#FF8200" stroke-width="1.4"/><path d="M16.076 7c0 1.364-1.151 2.5-2.608 2.5S10.86 8.364 10.86 7s1.15-2.5 2.608-2.5c1.457 0 2.608 1.136 2.608 2.5z" stroke="#FF8200"/></svg><svg fill="none" viewBox="0 0 18 17" id="map-phone" xmlns="http://www.w3.org/2000/svg"><path d="M1.692 1.625l.129-.16.56-.544s0 0 0 0c.307-.297.773-.28 1.025-.036 0 0 0 0 0 0l2.72 2.632s0 0 0 0 0 0 0 0c.239.231.259.643-.036.928h0l-.452.438h0l-.92.888-.397.384.281.476.12.208.022.039h.001l.007.013c.486.846 1.183 2.06 2.502 3.336 1.318 1.277 2.574 1.95 3.448 2.419h.002l.274.148.45.24.366-.354 1.37-1.326h0c.306-.296.772-.28 1.027-.036 0 0 0 0 0 0l2.718 2.63s0 0 0 0c.239.232.259.643-.034.929l-.602.57-.128.098a3.76 3.76 0 01-.936.512c-.321.12-.634.196-.96.234-.132.013-3.982.34-8.833-4.353C1.764 8.405.613 5.982.93 3.442v-.005a3.553 3.553 0 01.761-1.812zm3.66 4.905l-.021-.037a17.39 17.39 0 00-.126-.218l.147.255z" stroke="#FF8200" stroke-width="1.4"/></svg><svg fill="none" viewBox="0 0 20 19" id="map-time" xmlns="http://www.w3.org/2000/svg"><path d="M9.468 6v5h4.143" stroke="#FF8200" stroke-width="1.4"/><path d="M19.127 9.5c0 4.837-4.07 8.8-9.141 8.8-5.073 0-9.142-3.963-9.142-8.8 0-4.837 4.07-8.8 9.142-8.8 5.072 0 9.141 3.963 9.141 8.8z" stroke="#FF8200" stroke-width="1.4"/></svg></svg>