<svg width="80" height="46" fill="none" xmlns="http://www.w3.org/2000/svg"><path fill-rule="evenodd" clip-rule="evenodd" d="M34.432.552c-15.902 1.72-25.52 9.83-21.034 17.737.555.979 1.87 2.496 2.902 3.349 6.663 5.505 19.652 8.016 31.753 6.138 7.245-1.124 13.054-3.616 16.523-7.086 2.107-2.108 3.002-3.964 3.01-6.242.006-1.455-.197-2.32-.846-3.618C64.079 5.517 55.427 1.451 44.697.473 42.49.272 36.603.317 34.432.552zm9.826 2.096c3.082.256 5.786.706 8.405 1.4 1.675.443 1.9.552 1.9.917 0 .355-1.24 1.338-2.996 2.375-4.772 2.819-12.897 5.61-15.28 5.247-2.572-.391-2.865-2.532-.905-6.634.887-1.857 1.76-2.786 3.05-3.242.684-.242 3.333-.27 5.826-.063zM30.8 3.456c.127.049.232.154.232.234 0 .08-.45.708-1 1.397-2.817 3.523-5.787 8.588-8.284 14.127-.945 2.095-1.092 2.34-1.438 2.38-.884.105-4.047-2.625-4.953-4.274-2.498-4.549.921-9.306 8.805-12.248 1.43-.534 5.616-1.687 6.163-1.699.134-.002.348.035.475.083zm30.07 4.142c.51.334 1.463 1.133 2.114 1.774 1.571 1.547 2.25 2.879 2.357 4.622.059.964.013 1.352-.248 2.114-1.27 3.712-5.99 6.816-13.13 8.639-2.25.574-2.953.629-2.953.23 0-.147.438-.815.974-1.486 2.7-3.376 5.556-8.26 8.101-13.847.574-1.26 1.11-2.373 1.191-2.473.25-.306.626-.206 1.593.427zm-16.1 8.784c1.612.763 1.563 2.802-.155 6.35-.848 1.754-1.783 2.783-2.856 3.145-1.309.442-6.091.27-10.048-.36-2.137-.34-5.738-1.206-6.035-1.45-.548-.45.018-1.055 2.36-2.52 3.622-2.267 10.8-5.014 14.323-5.482.708-.094 1.86.058 2.41.317zM.773 39.73v5.65h2.624l.04-2.282.04-2.282h4.824l.04 2.282.04 2.281h2.624V34.08h-2.63v4.353l-2.449-.04-2.448-.04-.04-2.136-.04-2.137H.773v5.65zm11.497-5.47c.061.1 1.118 1.772 2.347 3.716l2.235 3.535v3.867h2.631v-3.922l2.185-3.44c1.202-1.892 2.229-3.552 2.281-3.688.088-.226-.048-.249-1.438-.249h-1.535l-1.366 2.173c-.751 1.195-1.406 2.173-1.454 2.173-.048 0-.707-.978-1.463-2.173l-1.375-2.172h-1.58c-1.227 0-1.555.04-1.468.18zm13.06 5.477v5.657l4.348-.044c4.93-.05 5.04-.074 5.594-1.21.27-.552.29-.905.29-5.326v-4.735h-2.619l-.043 4.279c-.036 3.614-.076 4.3-.262 4.416-.12.075-1.222.138-2.448.14l-2.229.002v-8.837H25.33v5.658zm12.717-.008v5.65h2.631v-8.837h2.309c1.601 0 2.363.053 2.485.173.128.128.175 1.31.175 4.419v4.244h2.631v-4.904c0-6.84.415-6.394-5.956-6.395h-4.276v5.65zm12.862 0v5.665l4.349-.044c6.224-.063 5.883.26 5.883-5.588 0-4.387-.047-4.662-.897-5.263-.49-.346-.514-.348-4.913-.392l-4.422-.044v5.666zm14.032-5.488c-.67.265-1.15.859-1.318 1.635-.103.471-.144 2.307-.115 5.084l.044 4.346h2.632l.04-1.702.042-1.702h4.805l.04 1.702.042 1.702 1.352.041 1.352.042V34.08l-4.275.01c-2.467.005-4.43.07-4.64.152zm11.547 5.488v5.65h2.632v-11.3h-2.632v5.65zm-18.13-2.907c.089.164.152 1.39.152 2.96 0 2.242-.038 2.715-.23 2.906-.189.187-.63.228-2.485.228H53.54v-6.374h2.334c2.157 0 2.345.02 2.484.28zM71.08 37.99v1.449h-4.823v-1.364c0-.956.054-1.386.182-1.437.1-.04 1.186-.079 2.412-.085l2.229-.011v1.448z" fill="#fff"/></svg>