<svg width="78" height="41" fill="none" xmlns="http://www.w3.org/2000/svg"><path fill-rule="evenodd" clip-rule="evenodd" d="M.068 12.756v12.756h23.04V13.026l4.72.075c3.746.059 5.118.138 6.652.384 4.994.802 9.43 2.235 12.02 3.885 1.242.79 2.496 2.075 2.834 2.901.558 1.362.057 2.894-1.42 4.348l-.907.893h30.06l-.001-.342c-.003-.488-.347-1.743-.705-2.57-1.18-2.724-4.322-5.7-7.815-7.401-1.691-.823-3.908-1.588-5.989-2.064-.971-.223-1.783-.421-1.803-.442-.02-.02.683-.19 1.561-.377 3.313-.703 6.644-2.1 9.083-3.806 1.546-1.08 3.589-3.182 4.363-4.487.582-.981 1.307-2.995 1.307-3.632V0H46.854l.627.695c.914 1.013 1.24 1.863 1.167 3.041-.05.795-.149 1.09-.573 1.707-1.376 2-4.432 3.715-9.07 5.092-4.338 1.288-6.687 1.607-11.846 1.61l-4.05.003V0H.067v12.756zm63.77 21.786v6.307h3.419v-1.26c0-1.213.13-1.626.513-1.624.086 0 .546.65 1.023 1.442l.867 1.442h1.854c1.444 0 1.83-.042 1.744-.19-.06-.104-.8-1.328-1.644-2.72-.843-1.391-1.533-2.578-1.533-2.637 0-.06.602-.775 1.338-1.59.736-.816 1.338-1.525 1.338-1.577 0-.051-.788-.093-1.751-.093h-1.751l-.962 1.168-.962 1.169-.074-3.03-.074-3.028-1.673-.043-1.672-.043v6.307zm-63.77.081v6.226h3.419V37.14l.625-.65.625-.652 1.6 2.506 1.601 2.505h2.167c1.784 0 2.146-.036 2.048-.206-.066-.114-1.18-1.82-2.479-3.79l-2.359-3.585.65-.756c.358-.416 1.343-1.512 2.19-2.436l1.54-1.68H7.081l-1.797 1.922-1.797 1.92v-3.841H.067v6.226zm73.73-5.087v1.139h3.27v-2.278h-3.271v1.139zm-26.073 2.217c-1.129.169-2.08.644-2.504 1.25-.268.384-.336.686-.336 1.494 0 .869.053 1.071.372 1.425.521.579 1.341.918 2.941 1.217 1.508.282 2.113.628 2.113 1.21 0 .443-.443.713-1.204.733-.603.016-1.116-.34-1.336-.928-.12-.322-.213-.342-1.544-.342H44.81v.423c0 .835.604 1.743 1.486 2.234.79.44.884.456 2.75.456 1.824 0 1.982-.024 2.795-.432 1.355-.68 1.947-1.922 1.584-3.324-.338-1.309-1.236-1.874-3.673-2.312-1.786-.32-2.173-.62-1.548-1.197.44-.408 1.171-.319 1.683.204.436.445.478.455 1.937.455h1.491l-.102-.417c-.309-1.266-1.234-1.918-3.063-2.16-1.249-.166-1.234-.166-2.426.011zm-32.98.15c-.845.203-1.686.69-2.007 1.16-.27.397-.63 1.3-.63 1.583 0 .07.703.129 1.561.129 1.197 0 1.56-.047 1.56-.201 0-.43.72-.908 1.387-.923.746-.017 1.14.246 1.14.76 0 .52-.445.745-2.512 1.26-2.812.703-3.577 1.41-3.378 3.124.109.94.44 1.42 1.292 1.875.58.309.822.345 1.998.294.949-.041 1.542-.152 2.043-.381.695-.319.708-.32.86-.029.136.26.32.295 1.524.295h1.37l-.04-3.303c-.045-3.662-.165-4.296-.944-4.965-.243-.21-.786-.484-1.206-.612-.834-.253-3.088-.29-4.019-.066zm5.873.02c.04.107.725 2.16 1.524 4.56l1.453 4.366h3.478l.256-.949c.141-.522.432-1.528.647-2.234l.39-1.286.333 1.134.657 2.239.325 1.106 1.64-.043 1.639-.043 1.384-4.222c.761-2.322 1.426-4.357 1.478-4.523.09-.289.029-.298-1.646-.257l-1.74.043-.588 2.05c-.324 1.127-.64 2.104-.701 2.17-.062.066-.366-.754-.677-1.823-.31-1.068-.624-2.061-.698-2.207-.113-.225-.35-.266-1.518-.266H26.87l-.633 2.164c-.349 1.19-.68 2.249-.735 2.353-.056.104-.403-.852-.771-2.126l-.67-2.315-1.758-.043c-1.381-.034-1.742-.002-1.685.151zm17.446-.025c-1.31.334-2.214 1.192-2.467 2.338l-.12.539 1.508-.001 1.508-.001.248-.446c.465-.833 2.189-.93 2.435-.136.2.644-.448 1.02-2.557 1.481-1.935.424-2.823.916-3.194 1.773-.558 1.289-.046 2.734 1.162 3.28.943.426 3.084.344 4.022-.153.628-.333.63-.333.816-.029.166.271.345.306 1.581.306h1.395l-.07-3.379c-.072-3.503-.15-3.98-.756-4.646-.696-.764-1.39-.986-3.224-1.031-.94-.023-1.969.024-2.287.105zm18.897.005c-1.231.296-2.15 1.023-2.382 1.885-.045.167-.126.457-.178.645-.096.34-.084.342 1.474.342 1.262 0 1.571-.043 1.571-.217 0-.12.17-.353.379-.52.877-.706 2.074-.498 2.074.36 0 .58-.52.853-2.44 1.279-2.433.54-3.27 1.175-3.39 2.572-.088 1.016.416 1.958 1.296 2.42.587.31.833.346 2.007.295.949-.041 1.543-.152 2.043-.381.695-.319.708-.32.86-.029.136.26.32.295 1.524.295h1.37l-.041-3.303c-.046-3.662-.167-4.298-.943-4.965-.243-.21-.786-.484-1.205-.612-.835-.253-3.088-.29-4.02-.066zm16.837 4.542v4.404h3.27v-8.808h-3.271v4.404zm-56.19.999c0 .566-.08.778-.434 1.139-.352.36-.562.444-1.104.444-.675 0-1.137-.276-1.137-.678 0-.55.65-.942 2.638-1.588.02-.007.037.3.037.683zm23.417.02c-.148.802-.372 1.209-.771 1.394-.48.223-1.432.215-1.657-.013-.244-.25-.224-.957.034-1.175.276-.234 2.203-.886 2.366-.8.068.036.08.303.028.593zm18.8-.02c0 .569-.081.777-.443 1.147-.385.393-.534.447-1.135.406-.86-.057-1.192-.439-.903-1.035.133-.275.485-.489 1.295-.786a160.25 160.25 0 011.148-.418c.02-.005.038.304.038.686z" fill="#fff"/></svg>