<svg width="40" height="47" fill="none" xmlns="http://www.w3.org/2000/svg"><path fill-rule="evenodd" clip-rule="evenodd" d="M19.14.491c-.803.83-3.132 2.873-4.364 3.83C12.25 6.284 9.773 7.84 6.628 9.44c-1.912.972-5.693 2.584-6.064 2.584-.074 0-.133.04-.13.09.004.05 1.886 1.4 4.183 3a6331.891 6331.891 0 0119.315 13.522c1.095.778 1.165.852 1.035 1.099-.361.686-.751.6-2.313-.504-1.636-1.157-7.078-4.741-8.104-5.336-3.33-1.932-7.738-1.689-12.405.685-.58.295-1.256.662-1.503.815l-.448.278 5.624 3.99c3.094 2.194 7.442 5.282 9.663 6.86l4.04 2.871 1.433-1.373c4.588-4.396 10.9-8.307 16.835-10.43l1.07-.382-.408-.301c-.223-.166-3.304-2.33-6.846-4.809-3.542-2.478-8.85-6.196-11.797-8.262-2.946-2.066-5.437-3.803-5.537-3.86-.16-.093-.16-.143.004-.442.328-.599.802-.526 1.953.3 1.674 1.2 7.058 4.76 8.455 5.59 1.935 1.15 4.607 1.56 7.208 1.107 1.978-.345 4.553-1.323 6.349-2.413.702-.426.721-.451.508-.652-.122-.114-3.797-2.74-8.166-5.835-4.37-3.095-8.577-6.079-9.35-6.63C20.46.451 19.782 0 19.723 0c-.058 0-.32.221-.581.491zM2.518 40.881c-.8.11-1.536.43-1.888.819-.291.322-.385 1.087-.2 1.644.225.681.768.868 3.51 1.206.626.077.88.29.769.64-.145.458-1.144.516-1.569.092-.263-.263-.403-.29-1.68-.331-1.217-.039-1.391-.02-1.391.149 0 .373.547 1 1.14 1.304.53.273.77.313 2.125.35 1.783.048 2.63-.136 3.293-.718.231-.203.482-.574.558-.827.116-.388.103-.528-.09-.92-.312-.64-.982-.972-2.634-1.307-1.78-.361-1.886-.398-1.84-.638.11-.573 1.352-.54 1.736.045.183.28.253.295 1.383.295 1.308 0 1.363-.039 1.012-.717-.234-.451-.712-.818-1.252-.96-.673-.178-2.162-.241-2.982-.127zm5.134 2.34v2.34l.38.432c.715.814 1.159.96 2.934.96 1.437 0 1.617-.026 2.154-.302 1.06-.545 1.087-.627 1.13-3.374l.037-2.397h-2.181v2.05c0 2.016-.005 2.054-.296 2.344-.444.445-1.571.377-1.9-.113-.048-.073-.088-1.066-.09-2.207l-.001-2.074H7.65v2.34zm14.345-.03c.046 2.683.083 2.79 1.204 3.403.563.308.79.356 1.859.398 1.414.054 2.333-.154 2.943-.666.641-.54.714-.872.714-3.278V40.88h-2.143l-.043 2.115c-.04 2.053-.05 2.122-.326 2.345-.343.277-1.302.312-1.649.06-.212-.155-.24-.37-.294-2.315l-.06-2.145-1.123-.034-1.122-.035.039 2.32zm-7.243-1.469v.721h1.565c.86 0 1.564.04 1.564.09 0 .05-.704.728-1.565 1.507l-1.564 1.416v1.436h6.74v-1.676l-1.606-.034-1.606-.033 1.606-1.443 1.606-1.443v-1.262h-6.74v.721zm14.472 2.194l.033 2.916 1.108.035 1.109.034.035-1.04.035-1.041 1.101 1.036 1.101 1.036 1.427-.006 1.426-.005-1.61-1.535-1.609-1.535.765-.714c.42-.393 1.09-1.024 1.489-1.403l.724-.689-1.324.002-1.324.002-1.083 1.015c-.596.558-1.124 1.015-1.174 1.017-.05.002-.09-.456-.09-1.018V41h-2.172l.032 2.915zm7.797.03v2.946h2.046v-5.891h-2.046v2.945z" fill="#fff"/></svg>