<svg width="12" height="12" fill="none" xmlns="http://www.w3.org/2000/svg"><path d="M2.085.064h8.152c.775 0 1.408.574 1.408 1.408v8.153c0 .834-.633 1.407-1.407 1.407H2.085c-.774 0-1.408-.573-1.408-1.407V1.472c0-.834.634-1.408 1.408-1.408zm6.582 1.219a.495.495 0 00-.494.494v1.182c0 .271.222.493.494.493h1.24a.495.495 0 00.493-.493V1.777a.495.495 0 00-.493-.494h-1.24zm1.739 3.42H9.44c.092.298.141.614.141.94 0 1.825-1.526 3.304-3.41 3.304-1.882 0-3.408-1.48-3.408-3.303 0-.327.05-.643.14-.941H1.897v4.633c0 .24.196.436.436.436H9.97c.24 0 .436-.197.436-.436V4.703zM6.172 3.39c-1.217 0-2.203.956-2.203 2.135 0 1.178.986 2.134 2.203 2.134 1.216 0 2.203-.956 2.203-2.134 0-1.18-.987-2.135-2.203-2.135z" fill="#fff"/></svg>