<svg width="15" height="15" fill="none" xmlns="http://www.w3.org/2000/svg"><path fill-rule="evenodd" clip-rule="evenodd" d="M6.326.982A6.765 6.765 0 002.78 3.054c-.59.658-1.295 2.05-1.466 2.893-.265 1.308-.04 3.08.532 4.21l.247.488-.571 1.684c-.314.926-.564 1.693-.554 1.703.01.01.803-.233 1.764-.542l1.747-.561.643.264c.9.369 1.502.48 2.607.48 3.429 0 6.19-2.625 6.39-6.074.166-2.887-1.67-5.518-4.487-6.428C8.678.862 7.216.779 6.326.982zm2.776 1.087c2.376.699 3.98 2.787 3.977 5.176-.002 1.524-.504 2.753-1.56 3.813-1.72 1.729-4.414 2.127-6.493.959l-.367-.207-.996.31c-.547.17-1.013.292-1.034.27-.02-.02.114-.469.3-.996.293-.83.32-.978.202-1.113-.448-.51-.937-2.089-.935-3.013.006-2.346 1.734-4.572 4.039-5.205.682-.187 2.22-.184 2.867.006zM5.087 4.535c-.622.49-.734 1.47-.271 2.395.411.823 1.334 1.874 2.108 2.4.758.517 1.905.942 2.54.942.821 0 1.54-.657 1.46-1.335-.026-.221-.143-.31-.797-.602l-.766-.342-.365.41c-.2.226-.446.41-.545.41-.522-.002-2.271-1.497-2.271-1.94 0-.088.111-.31.247-.494.283-.383.271-.49-.15-1.417-.264-.585-.297-.618-.613-.618a1.08 1.08 0 00-.577.191z" fill="#fff"/></svg>