<svg width="14" height="10" fill="none" xmlns="http://www.w3.org/2000/svg"><path d="M13.1.912C12.625.31 11.748.064 10.073.064H3.991C2.278.064 1.386.326.913.967.452 1.59.452 2.512.452 3.786v2.428c0 2.468.547 3.721 3.54 3.721h6.08c1.453 0 2.258-.216 2.779-.747.534-.545.762-1.434.762-2.974V3.786c0-1.344-.036-2.27-.513-2.874zM8.9 5.335L6.14 6.873a.403.403 0 01-.417-.014.46.46 0 01-.204-.387V3.406a.46.46 0 01.204-.387.402.402 0 01.416-.014L8.9 4.533c.14.077.229.232.23.4a.457.457 0 01-.229.402z" fill="#fff"/></svg>