<?xml version="1.0" encoding="utf-8"?><svg viewBox="0 0 129 40" xmlns="http://www.w3.org/2000/svg" xmlns:xlink="http://www.w3.org/1999/xlink"><style>:root>svg{display:none}:root>svg:target{display:block}</style><svg fill="none" viewBox="0 0 129 37" id="instagram" xmlns="http://www.w3.org/2000/svg"><path d="M6.64.13C3.998 1.247 1.095 4.404.18 8.367c-1.161 5.02 3.67 7.144 4.066 6.447.467-.818-.865-1.094-1.14-3.7C2.752 7.75 4.3 3.992 6.246 2.342c.362-.306.345.12.345.91 0 1.41-.077 14.076-.077 16.72 0 3.577-.147 4.706-.409 5.822-.266 1.131-.693 1.896-.37 2.19.362.33 1.908-.454 2.802-1.716 1.073-1.514 1.448-3.332 1.516-5.307.081-2.38.078-6.157.081-8.311.003-1.976.033-7.762-.034-11.24C10.083.556 7.743-.339 6.64.129zm93.756 16.74c-.085 1.859-.492 3.312-.997 4.338-.978 1.984-3.008 2.6-3.87-.252-.47-1.556-.492-4.153-.154-6.324.344-2.21 1.303-3.88 2.893-3.73 1.567.15 2.301 2.191 2.128 5.967zM73.972 28.405c-.022 3.09-.503 5.8-1.534 6.586-1.463 1.116-3.429.279-3.022-1.976.36-1.995 2.064-4.032 4.56-6.522 0 0 .005.568-.004 1.912zm-.4-11.555c-.09 1.694-.524 3.396-.997 4.357-.978 1.985-3.023 2.605-3.87-.252-.58-1.953-.44-4.48-.154-6.071.372-2.066 1.273-3.982 2.892-3.982 1.575 0 2.351 1.746 2.13 5.948zm-15.308-.025c-.096 1.793-.442 3.293-.997 4.382-1.005 1.97-2.993 2.596-3.87-.252-.632-2.054-.417-4.855-.154-6.367.39-2.245 1.367-3.837 2.893-3.686 1.566.154 2.328 2.19 2.128 5.923zm70.152 2.095c-.383 0-.557.399-.702 1.07-.502 2.337-1.029 2.865-1.709 2.865-.759 0-1.442-1.157-1.617-3.473-.138-1.821-.116-5.173.061-8.508.036-.685-.151-1.363-1.969-2.03-.782-.288-1.919-.71-2.485.67-1.599 3.904-2.225 7.003-2.372 8.261-.008.066-.087.079-.101-.073-.094-1.009-.303-2.84-.329-6.69-.005-.751-.163-1.39-.983-1.914-.532-.34-2.147-.94-2.729-.225-.504.584-1.087 2.157-1.694 4.021-.493 1.515-.836 2.54-.836 2.54s.007-4.088.012-5.639c.003-.585-.394-.78-.514-.815-.538-.158-1.6-.422-2.05-.422-.556 0-.692.314-.692.771 0 .06-.088 5.383-.088 9.105 0 .162 0 .338.002.526-.308 1.71-1.305 4.033-2.389 4.033-1.086 0-1.598-.971-1.598-5.409 0-2.588.077-3.714.115-5.586.022-1.078.064-1.906.062-2.094-.008-.576-.994-.867-1.453-.974-.46-.108-.861-.15-1.173-.132-.443.025-.756.318-.756.722 0 .217.003.628.003.628-.57-.905-1.487-1.536-2.097-1.718-1.643-.494-3.357-.057-4.65 1.773-1.028 1.453-1.647 3.1-1.891 5.465-.178 1.73-.12 3.483.197 4.966-.383 1.673-1.094 2.359-1.872 2.359-1.13 0-1.949-1.865-1.854-5.09.063-2.12.483-3.608.942-5.762.195-.918.036-1.398-.362-1.859-.366-.422-1.145-.638-2.265-.372-.798.189-1.938.392-2.982.549 0 0 .063-.254.115-.702.271-2.349-2.253-2.158-3.058-1.408-.481.448-.808.976-.932 1.926-.197 1.507 1.018 2.218 1.018 2.218-.398 1.846-1.376 4.257-2.386 6-.54.935-.954 1.627-1.488 2.363l-.004-.82c-.013-3.882.039-6.936.061-8.037.022-1.079.065-1.885.063-2.073-.006-.421-.25-.58-.756-.782a5.314 5.314 0 00-1.526-.345c-.694-.054-1.111.317-1.1.757.002.083.002.592.002.592-.57-.905-1.487-1.536-2.097-1.718-1.643-.493-3.357-.056-4.65 1.773-1.027 1.454-1.7 3.493-1.89 5.447-.178 1.821-.146 3.369.097 4.672-.262 1.306-1.013 2.67-1.862 2.67-1.086 0-1.703-.97-1.703-5.407 0-2.589.076-3.714.114-5.586.022-1.079.065-1.907.062-2.095-.008-.576-.993-.867-1.452-.974-.48-.112-.894-.154-1.212-.13-.42.032-.715.412-.715.695v.653c-.57-.905-1.487-1.536-2.097-1.718-1.642-.493-3.347-.05-4.65 1.773-.849 1.188-1.537 2.505-1.89 5.421a18.47 18.47 0 00-.142 2.37c-.339 2.094-1.835 4.508-3.059 4.508-.716 0-1.398-1.404-1.398-4.398 0-3.986.244-9.663.286-10.21l1.845-.03c.771-.008 1.47.01 2.497-.043.515-.027 1.012-1.896.48-2.128-.241-.104-1.944-.196-2.62-.21-.567-.013-2.148-.132-2.148-.132s.142-3.767.175-4.165c.028-.332-.397-.503-.64-.607-.592-.253-1.122-.374-1.75-.505-.867-.18-1.26-.004-1.337.736-.116 1.123-.176 4.413-.176 4.413-.636 0-2.81-.126-3.447-.126-.591 0-1.23 2.572-.412 2.604.941.037 2.58.069 3.668.102 0 0-.049 5.77-.049 7.551l.002.55c-.598 3.152-2.705 4.854-2.705 4.854.453-2.085-.472-3.651-2.137-4.977a159.118 159.118 0 00-3.179-2.427s.785-.782 1.48-2.355c.494-1.115.515-2.39-.695-2.671-2-.465-3.649 1.02-4.14 2.605-.382 1.228-.178 2.14.568 3.086.054.07.113.14.175.211a81.754 81.754 0 01-1.597 2.983c-1.458 2.55-2.56 4.567-3.392 4.567-.665 0-.656-2.048-.656-3.965 0-1.653.12-4.138.217-6.711.032-.851-.389-1.336-1.094-1.775-.429-.267-1.343-.791-1.873-.791-.793 0-3.081.109-5.243 6.431-.272.797-.808 2.25-.808 2.25l.046-7.604c0-.178-.093-.35-.308-.468-.365-.2-1.338-.61-2.203-.61-.412 0-.618.195-.618.581L13.2 21.014c0 .904.023 1.958.112 2.42.088.461.23.837.407 1.06.176.223.38.393.717.463.313.066 2.028.288 2.117-.374.107-.794.11-1.653 1.011-4.856 1.402-4.987 3.23-7.42 4.089-8.284.15-.151.322-.16.313.087-.036 1.093-.165 3.825-.252 6.146-.233 6.211.885 7.363 2.482 7.363 1.221 0 2.944-1.228 4.79-4.335a1104.74 1104.74 0 003.071-5.203c.56.524 1.188 1.087 1.815 1.69 1.459 1.399 1.937 2.728 1.62 3.99-.243.964-1.158 1.958-2.787.992-.474-.282-.677-.5-1.154-.817-.257-.17-.648-.222-.883-.043-.61.465-.958 1.056-1.157 1.788-.194.712.511 1.088 1.243 1.418.63.283 1.983.54 2.846.57 3.363.113 6.057-1.642 7.932-6.17.336 3.91 1.764 6.123 4.247 6.123 1.66 0 3.323-2.169 4.05-4.303.21.87.519 1.627.918 2.266 1.913 3.064 5.623 2.405 7.487-.197.576-.804.664-1.093.664-1.093.272 2.457 2.229 3.315 3.349 3.315 1.255 0 2.55-.6 3.458-2.667.107.225.223.439.35.642 1.912 3.064 5.623 2.405 7.487-.197.088-.122.164-.233.23-.332l.055 1.613-1.716 1.592c-2.872 2.664-5.057 4.686-5.217 7.04-.207 3.002 2.201 4.118 4.023 4.264 1.935.155 3.591-.925 4.61-2.437.895-1.331 1.482-4.196 1.439-7.026-.017-1.132-.046-2.573-.068-4.117a32.984 32.984 0 003.195-4.438c1.141-1.911 2.365-4.478 2.991-6.476 0 0 1.063.01 2.197-.066.363-.024.467.051.4.32-.08.325-1.433 5.598-.2 9.11.846 2.405 2.75 3.179 3.878 3.179 1.322 0 2.586-1.01 3.264-2.508.081.168.166.33.26.478 1.912 3.064 5.61 2.401 7.487-.197a7.846 7.846 0 00.664-1.093c.402 2.543 2.358 3.328 3.478 3.328 1.167 0 2.274-.483 3.173-2.633.037.947.097 1.72.19 1.965.057.149.388.336.63.427 1.067.4 2.156.21 2.558.128.279-.057.497-.283.527-.868.078-1.534.03-4.113.49-6.029.772-3.215 1.493-4.463 1.835-5.08.191-.346.407-.403.414-.037.017.74.053 2.917.352 5.84.22 2.15.514 3.42.739 3.823.644 1.15 1.439 1.204 2.087 1.204.411 0 1.273-.115 1.196-.846-.038-.357.028-2.562.789-5.73.498-2.07 1.327-3.938 1.626-4.622.11-.252.161-.053.159-.014-.063 1.424-.204 6.085.37 8.633.778 3.453 3.03 3.84 3.814 3.84 1.675 0 3.044-1.288 3.506-4.678.111-.815-.054-1.445-.547-1.445" fill="#262626"/></svg><svg fill="none" viewBox="0 0 93 40" id="youtube" xmlns="http://www.w3.org/2000/svg"><g clip-path="url(#bclip0)"><path d="M34.709 32.167h-3.52V30.1c-1.33 1.567-2.492 2.333-3.704 2.333-1.096 0-1.827-.5-2.226-1.45-.199-.583-.365-1.466-.365-2.783V13.167h3.52V28.6c.084.5.3.7.748.7.664 0 1.296-.617 2.043-1.667V13.167h3.52v19h-.016zm-12.455-12.8c0-2.034-.382-3.55-1.097-4.5-.93-1.334-2.407-1.834-3.902-1.834-1.694 0-2.99.5-3.903 1.834-.73.95-1.113 2.5-1.113 4.5v6.783c0 2 .333 3.4 1.063 4.333.93 1.334 2.458 2 3.936 2 1.495 0 3.023-.666 3.986-2 .664-.933.996-2.333.996-4.333v-6.817l.034.034zm-3.488 7.166c.166 1.884-.415 2.834-1.495 2.834-1.096 0-1.66-.95-1.494-2.834V19c-.166-1.883.398-2.767 1.494-2.767 1.08 0 1.661.884 1.495 2.767v7.533zm-10.413-4.7v10.334H4.65V21.833S.78 9.1 0 6.733h3.903l2.607 9.934L9.1 6.75h3.887l-4.65 15.067" fill="#111"/><path d="M70.979 16.167c-.548 0-1.163.333-1.744.866v11.434c.548.566 1.163.833 1.727.833.997 0 1.412-.7 1.412-2.583v-8.1c0-1.884-.448-2.434-1.428-2.434l.033-.016zm13.85 2.283c0-1.75-.448-2.267-1.56-2.267-1.114 0-1.595.5-1.595 2.25v2.084h3.155v-2.05" fill="#E62117"/><path d="M92.452 8.8s-.548-3.833-2.209-5.55C88.134 1 85.76 1 84.697.883 76.94.333 65.299.333 65.299.333h-.033s-11.625 0-19.38.55c-1.08.134-3.455.134-5.564 2.367-1.66 1.7-2.192 5.55-2.192 5.55s-.565 4.533-.565 9.067v4.25c0 4.533.565 9.05.565 9.05s.532 3.866 2.192 5.566c2.11 2.234 4.883 2.167 6.112 2.384 4.434.433 18.849.566 18.849.566s11.675 0 19.43-.566c1.08-.134 3.438-.134 5.547-2.367 1.66-1.7 2.209-5.567 2.209-5.567S93 26.667 93 22.117v-4.25c0-4.534-.548-9.067-.548-9.067zM49.74 32.167h-3.704V10.5h-3.902V6.967h11.69V10.5h-4.068v21.667h-.017zm13.368 0h-3.52V30.1c-1.329 1.567-2.492 2.333-3.704 2.333-1.096 0-1.827-.5-2.225-1.45-.2-.583-.366-1.466-.366-2.783V13.333h3.521v15.284c.083.5.3.7.747.7.665 0 1.296-.617 2.043-1.667V13.333h3.504v18.834zm12.788-5.634c0 1.734-.117 2.967-.332 3.767-.465 1.4-1.445 2.117-2.774 2.117-1.195 0-2.424-.734-3.554-2.134v1.9h-3.354V6.967h3.321v8.2c1.096-1.334 2.325-2.117 3.57-2.117 1.33 0 2.226.783 2.658 2.167.249.783.465 2 .465 3.783v7.533zm7.407 2.784c.83 0 1.328-.467 1.494-1.384.033-.166.033-1 .033-2.366h3.521v.533c0 1.1-.083 1.883-.116 2.217a5.023 5.023 0 01-.78 2.05c-.93 1.366-2.326 2.033-4.07 2.033-1.743 0-3.072-.633-4.052-1.933-.714-.95-1.162-2.334-1.162-4.334v-6.6c0-2 .415-3.566 1.13-4.533.962-1.283 2.324-1.967 4.018-1.967s3.023.667 3.986 1.967c.664.967 1.08 2.433 1.08 4.45v3.883h-6.677V26.7c0 1.75.499 2.617 1.628 2.617h-.033z" fill="#E62117"/></g><defs><clipPath id="bclip0"><path fill="#fff" d="M0 0h93v40H0z"/></clipPath></defs></svg></svg>