<?xml version="1.0" encoding="utf-8"?><svg viewBox="0 0 93 40" xmlns="http://www.w3.org/2000/svg" xmlns:xlink="http://www.w3.org/1999/xlink"><style>:root>svg{display:none}:root>svg:target{display:block}</style><svg fill="none" viewBox="0 0 93 40" id="youtube" xmlns="http://www.w3.org/2000/svg"><g clip-path="url(#aclip0)"><path d="M34.709 32.167h-3.52V30.1c-1.33 1.567-2.492 2.333-3.704 2.333-1.096 0-1.827-.5-2.226-1.45-.199-.583-.365-1.466-.365-2.783V13.167h3.52V28.6c.084.5.3.7.748.7.664 0 1.296-.617 2.043-1.667V13.167h3.52v19h-.016zm-12.455-12.8c0-2.034-.382-3.55-1.097-4.5-.93-1.334-2.407-1.834-3.902-1.834-1.694 0-2.99.5-3.903 1.834-.73.95-1.113 2.5-1.113 4.5v6.783c0 2 .333 3.4 1.063 4.333.93 1.334 2.458 2 3.936 2 1.495 0 3.023-.666 3.986-2 .664-.933.996-2.333.996-4.333v-6.817l.034.034zm-3.488 7.166c.166 1.884-.415 2.834-1.495 2.834-1.096 0-1.66-.95-1.494-2.834V19c-.166-1.883.398-2.767 1.494-2.767 1.08 0 1.661.884 1.495 2.767v7.533zm-10.413-4.7v10.334H4.65V21.833S.78 9.1 0 6.733h3.903l2.607 9.934L9.1 6.75h3.887l-4.65 15.067" fill="#111"/><path d="M70.979 16.167c-.548 0-1.163.333-1.744.866v11.434c.548.566 1.163.833 1.727.833.997 0 1.412-.7 1.412-2.583v-8.1c0-1.884-.448-2.434-1.428-2.434l.033-.016zm13.85 2.283c0-1.75-.448-2.267-1.56-2.267-1.114 0-1.595.5-1.595 2.25v2.084h3.155v-2.05" fill="#E62117"/><path d="M92.452 8.8s-.548-3.833-2.209-5.55C88.134 1 85.76 1 84.697.883 76.94.333 65.299.333 65.299.333h-.033s-11.625 0-19.38.55c-1.08.134-3.455.134-5.564 2.367-1.66 1.7-2.192 5.55-2.192 5.55s-.565 4.533-.565 9.067v4.25c0 4.533.565 9.05.565 9.05s.532 3.866 2.192 5.566c2.11 2.234 4.883 2.167 6.112 2.384 4.434.433 18.849.566 18.849.566s11.675 0 19.43-.566c1.08-.134 3.438-.134 5.547-2.367 1.66-1.7 2.209-5.567 2.209-5.567S93 26.667 93 22.117v-4.25c0-4.534-.548-9.067-.548-9.067zM49.74 32.167h-3.704V10.5h-3.902V6.967h11.69V10.5h-4.068v21.667h-.017zm13.368 0h-3.52V30.1c-1.329 1.567-2.492 2.333-3.704 2.333-1.096 0-1.827-.5-2.225-1.45-.2-.583-.366-1.466-.366-2.783V13.333h3.521v15.284c.083.5.3.7.747.7.665 0 1.296-.617 2.043-1.667V13.333h3.504v18.834zm12.788-5.634c0 1.734-.117 2.967-.332 3.767-.465 1.4-1.445 2.117-2.774 2.117-1.195 0-2.424-.734-3.554-2.134v1.9h-3.354V6.967h3.321v8.2c1.096-1.334 2.325-2.117 3.57-2.117 1.33 0 2.226.783 2.658 2.167.249.783.465 2 .465 3.783v7.533zm7.407 2.784c.83 0 1.328-.467 1.494-1.384.033-.166.033-1 .033-2.366h3.521v.533c0 1.1-.083 1.883-.116 2.217a5.023 5.023 0 01-.78 2.05c-.93 1.366-2.326 2.033-4.07 2.033-1.743 0-3.072-.633-4.052-1.933-.714-.95-1.162-2.334-1.162-4.334v-6.6c0-2 .415-3.566 1.13-4.533.962-1.283 2.324-1.967 4.018-1.967s3.023.667 3.986 1.967c.664.967 1.08 2.433 1.08 4.45v3.883h-6.677V26.7c0 1.75.499 2.617 1.628 2.617h-.033z" fill="#E62117"/></g><defs><clipPath id="aclip0"><path fill="#fff" d="M0 0h93v40H0z"/></clipPath></defs></svg></svg>