<svg width="41" height="45" fill="none" xmlns="http://www.w3.org/2000/svg"><mask id="path-1-inside-1" fill="#fff"><path d="M21.27 9.217c.034.02 3.694 2.272 10.743 3.758.58.122.987.566.987 1.077C33 22.7 29.675 30.777 21.242 35.8a1.481 1.481 0 01-1.484 0c-5.224-3.112-8.58-7.495-10.33-12.55C8.361 20.167 8 17.296 8 14.052c0-.51.407-.954.987-1.076 7.1-1.496 10.707-3.736 10.743-3.758a1.478 1.478 0 011.54 0z"/></mask><path d="M21.27 9.217c.034.02 3.694 2.272 10.743 3.758.58.122.987.566.987 1.077C33 22.7 29.675 30.777 21.242 35.8a1.481 1.481 0 01-1.484 0c-5.224-3.112-8.58-7.495-10.33-12.55C8.361 20.167 8 17.296 8 14.052c0-.51.407-.954.987-1.076 7.1-1.496 10.707-3.736 10.743-3.758a1.478 1.478 0 011.54 0z" stroke="#FF8200" stroke-width="2" mask="url(#path-1-inside-1)"/><mask id="path-2-inside-2" fill="#fff"><path d="M21.763.36c.055.036 6.058 3.79 17.619 6.265.95.203 1.618.944 1.618 1.794 0 14.414-5.452 27.876-19.283 36.25a2.396 2.396 0 01-2.434 0c-8.567-5.187-14.072-12.492-16.94-20.916C.592 18.61 0 13.825 0 8.419c0-.85.668-1.59 1.618-1.794C13.263 4.13 19.178.398 19.237.36a2.391 2.391 0 012.526 0z"/></mask><path d="M21.763.36c.055.036 6.058 3.79 17.619 6.265.95.203 1.618.944 1.618 1.794 0 14.414-5.452 27.876-19.283 36.25a2.396 2.396 0 01-2.434 0c-8.567-5.187-14.072-12.492-16.94-20.916C.592 18.61 0 13.825 0 8.419c0-.85.668-1.59 1.618-1.794C13.263 4.13 19.178.398 19.237.36a2.391 2.391 0 012.526 0z" stroke="#FF8200" stroke-width="2" mask="url(#path-2-inside-2)"/></svg>