<svg width="30" height="30" fill="none" xmlns="http://www.w3.org/2000/svg"><path d="M15 8.71c.534 0 .968.434.968.968h.967c0-.9-.618-1.65-1.451-1.867V6.774h-.968v1.037a1.933 1.933 0 00-1.451 1.867c0 1.067.867 1.935 1.935 1.935a.969.969 0 010 1.936.969.969 0 01-.968-.968h-.967c0 .899.618 1.65 1.451 1.867v1.036h.968v-1.036a1.933 1.933 0 001.451-1.867A1.937 1.937 0 0015 10.645a.969.969 0 010-1.935z" fill="#000"/><path d="M30 12.58V8.71h-2.903V0H7.527L2.903 5.137V8.71H0v3.87h2.903v1.642l-1.85-.674H0v10.646h4.226l.254-.813 2.045 1.227 1.356.353a1.502 1.502 0 00-.14.626c0 .814.65 1.476 1.458 1.504.028.808.69 1.457 1.505 1.457a1.5 1.5 0 00.501-.092c.193.612.76 1.06 1.434 1.06.322 0 .636-.11.893-.3l.358.359c.274.274.64.425 1.027.425H15a1.45 1.45 0 001.36-.958c.272.295.654.474 1.06.474a1.45 1.45 0 001.397-1.08c.17.067.35.112.538.112a1.45 1.45 0 001.398-1.08c.17.068.35.113.537.113.8 0 1.452-.652 1.452-1.452v-.161c0-.312-.103-.622-.291-.871l-.16-.214 1.796-1.437.235.747H30V13.549h-.968l-1.935.548v-1.515H30zM7.742 1.208V4.84H4.473l3.269-3.632zm-3.871 4.6H8.71V.966h17.419V8.71h-2.903V6.838l-5.711 3.807 5.71 3.808V12.58h2.904v1.79l-4.48 1.267.418 1.341-6.032.402a3.37 3.37 0 00-1.29.35l-1.035.518a3.384 3.384 0 00-1.478-.346H8.824l-2.276-1.138.342-1.094-3.02-1.098V12.58h2.904v1.872l5.711-3.808-5.71-3.807V8.71H3.87V5.806zM.968 11.612V9.677h6.774v-1.03l2.998 1.998-2.998 1.999v-1.031H.968zm2.547 11.613H.968v-8.679l4.723 1.717-2.176 6.962zm3.446.516l-2.183-1.31L6.256 17.7l2.34 1.17h3.636c.454 0 .897.127 1.282.368l2.631 1.644a.65.65 0 01.307.553v.17a.654.654 0 01-.989.56l-1.817-1.09a1.92 1.92 0 00-2.302.283l-2.783 2.783-1.6-.4zm8.523 4.806a.485.485 0 01-.484.484h-.083a.487.487 0 01-.342-.142l-.401-.4a.481.481 0 01-.142-.343v-.082c0-.267.217-.484.484-.484h.083c.128 0 .252.051.342.141l.401.401a.482.482 0 01.142.343v.082zm2.42-.483a.485.485 0 01-.872.29l-.968-1.29a.486.486 0 01-.096-.291v-.161a.485.485 0 01.87-.29l.968 1.29a.486.486 0 01.097.29v.162zm1.935-.968a.484.484 0 01-.871.29L18 26.097a.486.486 0 01-.097-.29v-.162a.485.485 0 01.871-.29l.968 1.29a.486.486 0 01.097.29v.162zm1.935-.968a.485.485 0 01-.87.29l-.968-1.29a.486.486 0 01-.097-.29v-.162a.485.485 0 01.87-.29l.968 1.29a.486.486 0 01.097.29v.162zm-.064-2.02l-.226-.303a1.459 1.459 0 00-1.162-.58 1.45 1.45 0 00-1.398 1.08 1.44 1.44 0 00-.537-.113 1.45 1.45 0 00-1.398 1.081 1.441 1.441 0 00-.537-.113c-.8 0-1.452.652-1.452 1.452v.063a1.45 1.45 0 00-.4-.063h-.084c-.8 0-1.451.651-1.451 1.451v.083c0 .062.01.122.017.183l-.06.06a.543.543 0 01-.767-.767l2.12-2.12-.685-.684-2.603 2.603a.543.543 0 01-.767-.767l2.603-2.603-.684-.684-2.603 2.602a.543.543 0 01-.767-.767l3.16-3.16a.933.933 0 011.119-.138l1.816 1.09a1.622 1.622 0 002.455-1.39v-.169a1.61 1.61 0 00-.761-1.374l-1.96-1.224.48-.24c.289-.145.598-.23.92-.25l6.266-.418 1.414 4.525-2.068 1.654zm7.322-9.574v8.69h-4l-2.164-6.928 6.164-1.761zm-6.774-2.922v1.031l-2.998-1.999 2.998-1.999v1.031h6.774v1.936h-6.774z" fill="#000"/><path d="M9.677 1.936h15.484v.967H9.677v-.967zm0 1.935h15.484v.968H9.677V3.87z" fill="#000"/></svg>