<svg fill="none" xmlns="http://www.w3.org/2000/svg"><g clip-path="url(#clip0)" fill="#fff"><path d="M9.762 19.4h16.1c.396 0 .744-.26.853-.638l3.55-12.305a.872.872 0 00-.144-.77.891.891 0 00-.709-.35H7.715L7.081 2.51a.886.886 0 00-.867-.689H.888a.883.883 0 00-.888.88c0 .485.397.878.888.878h4.614l3.205 14.28a2.64 2.64 0 00-1.605 2.42c0 1.453 1.194 2.636 2.663 2.636H25.86c.49 0 .888-.393.888-.879a.883.883 0 00-.887-.879H9.764a.884.884 0 01-.888-.879c0-.483.397-.877.885-.878zM28.235 7.095l-3.043 10.547H10.477L8.109 7.095h20.126z"/><path d="M8.877 25.547c0 1.454 1.195 2.637 2.663 2.637 1.468 0 2.663-1.183 2.663-2.637s-1.195-2.637-2.663-2.637c-1.468 0-2.663 1.183-2.663 2.637zm2.663-.879c.49 0 .888.394.888.879a.884.884 0 01-.888.879.885.885 0 01-.888-.88c0-.484.399-.878.888-.878zm9.883.879c0 1.454 1.195 2.637 2.663 2.637 1.469 0 2.663-1.183 2.663-2.637s-1.194-2.637-2.663-2.637c-1.468 0-2.663 1.183-2.663 2.637zm2.663-.879c.49 0 .888.394.888.879a.884.884 0 01-.888.879.884.884 0 01-.887-.88c0-.484.398-.878.887-.878z"/></g><defs><clipPath id="clip0"><path fill="#fff" d="M0 0h30.3v30H0z"/></clipPath></defs></svg>