<svg width="30" height="26" fill="none" xmlns="http://www.w3.org/2000/svg"><path d="M15.995 17.749h7.998c.3 0 .5-.2.5-.5V12.75c0-.3-.2-.5-.5-.5h-7.998c-.3 0-.5.2-.5.5v4.499c0 .3.2.5.5.5zm.5-4.499h6.998v3.499h-6.998V13.25zm-13.995-2h3.998c.3 0 .5-.2.5-.5s-.2-.499-.5-.499H2.499c-.3 0-.5.2-.5.5s.2.5.5.5zm5.997 0h4c.299 0 .499-.2.499-.5s-.2-.499-.5-.499H8.497c-.3 0-.5.2-.5.5s.2.5.5.5zm-5.997 2h6.497c.3 0 .5-.2.5-.5s-.2-.5-.5-.5H2.5c-.3 0-.5.2-.5.5s.2.5.5.5zm9.996-1h-1.5c-.3 0-.5.2-.5.5s.2.5.5.5h1.5c.3 0 .5-.2.5-.5s-.2-.5-.5-.5z" fill="#252525"/><path d="M29.54 6.052c-.35-.45-.799-.7-1.349-.75l-1.2-.145V2.753c0-1.1-.9-2-1.999-2H2c-1.1 0-2 .9-2 2v15.995c0 .903.608 1.67 1.433 1.917A1.945 1.945 0 003.2 22.647l23.093 2.6h.2c1 0 1.9-.75 1.999-1.7l1.5-16.045c.05-.5-.1-1.05-.45-1.45zM1 4.252h24.992v3H1v-3zm1-2.498h22.992c.55 0 1 .45 1 1v.5H1v-.5c0-.55.45-1 1-1zM1 18.748V8.252h24.992v10.496c0 .55-.45 1-1 1H2c-.55 0-1-.45-1-1zM28.99 7.302l-1.499 16.045c-.05.55-.55.95-1.1.9l-23.042-2.6c-.5-.05-.85-.45-.9-.9h22.543c1.1 0 2-.9 2-1.999V6.102l1.15.1c.249 0 .499.15.649.35.15.2.25.5.2.75z" fill="#252525"/></svg>