<svg width="30" height="30" fill="none" xmlns="http://www.w3.org/2000/svg"><g clip-path="url(#clip0)" fill="#252525"><path d="M30 2.043a2.021 2.021 0 00-.595-1.448 2.048 2.048 0 00-2.896.01c-.164.163-.463.518-.626.714a.486.486 0 00.748.621c.255-.308.467-.55.565-.648a1.08 1.08 0 01.765-.32h.004a1.056 1.056 0 011.063 1.067c-.001.288-.115.56-.32.765-.183.183-.814.684-1.717 1.315a3.08 3.08 0 00-2.659-1.53h-7.117c-.96 0-1.864.375-2.543 1.054L.446 17.869c-.288.288-.446.67-.446 1.077 0 .407.158.79.446 1.077l9.531 9.531c.297.297.687.445 1.077.445.39 0 .78-.148 1.077-.445l14.226-14.226a3.573 3.573 0 001.053-2.543V5.668c0-.21-.02-.415-.061-.614 1.028-.707 1.783-1.3 2.046-1.563.388-.387.603-.901.605-1.448zm-3.562 10.742c0 .7-.273 1.36-.768 1.855L11.444 28.867a.552.552 0 01-.78 0l-9.53-9.532a.547.547 0 010-.779L15.358 4.33a2.608 2.608 0 011.856-.768h7.117c.8 0 1.496.447 1.853 1.105a39.39 39.39 0 01-1.9 1.182 2.044 2.044 0 00-2.952-.069 2.044 2.044 0 000 2.887c.398.398.921.596 1.444.596.523 0 1.045-.198 1.443-.596a2.042 2.042 0 00.53-1.964 40.738 40.738 0 001.688-1.04v7.122zM22.343 7.44a.486.486 0 00.652.216c.285-.143.57-.292.85-.445a1.07 1.07 0 11-1.824-.745 1.066 1.066 0 011.373-.116c-.275.15-.554.296-.835.438a.486.486 0 00-.216.652z"/><path d="M14.482 9.9a.486.486 0 00-.486.486v10.265a.486.486 0 10.972 0V10.386a.486.486 0 00-.486-.486zm-2.222 4.175a2.043 2.043 0 00-2.887 0 2.044 2.044 0 000 2.887 2.04 2.04 0 102.887-2.887zm-.688 2.2a1.07 1.07 0 01-1.512-1.513c.209-.208.482-.312.756-.312a1.066 1.066 0 011.07 1.068c0 .286-.112.555-.314.756zm8.019-2.2a2.043 2.043 0 00-2.887 0 2.044 2.044 0 000 2.887c.398.398.921.597 1.444.597.523 0 1.046-.2 1.443-.597a2.044 2.044 0 000-2.887zm-.687 2.2a1.07 1.07 0 01-1.512-1.513c.208-.208.482-.312.756-.312s.548.104.756.312a1.07 1.07 0 010 1.512z"/></g><defs><clipPath id="clip0"><path fill="#fff" d="M0 0h30v30H0z"/></clipPath></defs></svg>