<svg width="32" height="40" fill="none" xmlns="http://www.w3.org/2000/svg"><path d="M23.83 14.667H7.28a.664.664 0 00-.662.666c0 .369.297.667.662.667h16.55a.664.664 0 00.662-.667.664.664 0 00-.662-.666zm-16.549-4h6.62a.664.664 0 00.662-.667.664.664 0 00-.662-.667H7.28a.664.664 0 00-.66.667c0 .369.297.667.662.667zM23.83 20H7.28a.664.664 0 00-.662.667c0 .368.297.666.662.666h16.55a.664.664 0 00.662-.666.664.664 0 00-.662-.667zm0 5.333H7.28a.664.664 0 00-.66.667c0 .369.297.667.662.667H23.83a.664.664 0 00.662-.667.664.664 0 00-.662-.667zm0 5.334H7.28a.664.664 0 00-.662.666c0 .369.297.667.662.667h16.55a.664.664 0 00.662-.667.664.664 0 00-.662-.666z" fill="#252525"/><path d="M21.456 0H0v40h31.11V9.724L21.456 0zm.388 2.276l7.007 7.057h-7.007V2.276zm-20.52 36.39V1.334H20.52v9.334h9.267v28H1.324z" fill="#252525"/></svg>