<svg width="214" height="42" fill="none" xmlns="http://www.w3.org/2000/svg"><path d="M8.476 39.169H6.955v-7.332H2.444v7.332H.923v-8.671h7.553v8.67zm5.182.156c-.832 0-1.503-.342-2.014-1.027v3.263h-1.366V32.89h1.365v.858c.503-.676 1.175-1.014 2.015-1.014.824 0 1.491.295 2.003.884.52.59.78 1.39.78 2.405 0 1.014-.26 1.82-.78 2.418-.512.59-1.18.884-2.002.884zm-.402-1.21c.537 0 .966-.194 1.287-.584.32-.39.48-.893.48-1.508s-.16-1.114-.48-1.495c-.321-.39-.75-.585-1.287-.585-.313 0-.62.082-.924.247a1.886 1.886 0 00-.689.598v2.483c.156.234.386.433.69.598.303.165.61.247.922.247zm7.372 1.21c-.97 0-1.75-.316-2.34-.95-.59-.64-.884-1.425-.884-2.352 0-.927.295-1.707.884-2.34.59-.633 1.37-.95 2.34-.95.98 0 1.764.317 2.353.95.59.633.884 1.413.884 2.34 0 .936-.294 1.72-.884 2.353-.59.633-1.373.949-2.353.949zm0-1.21c.564 0 1.006-.198 1.326-.597.33-.407.494-.906.494-1.495 0-.58-.165-1.07-.494-1.47-.32-.406-.762-.61-1.326-.61-.555 0-.997.204-1.326.61-.32.4-.48.89-.48 1.47 0 .59.16 1.088.48 1.495.33.399.771.598 1.326.598zm5.931 1.054h-1.313v-6.28h1.365v4.226l2.886-4.225h1.365v6.279h-1.365v-4.342l-2.938 4.342zm8.338.156c-1.23 0-2.193-.338-2.886-1.014l.637-.871c.572.511 1.322.767 2.249.767.477 0 .85-.074 1.118-.221.277-.156.416-.364.416-.624 0-.546-.55-.82-1.651-.82h-1.339v-1.091h1.339c.477 0 .85-.07 1.118-.208.277-.139.416-.342.416-.611 0-.225-.143-.412-.429-.56-.286-.146-.646-.22-1.079-.22-.84 0-1.512.251-2.015.754l-.676-.832c.667-.685 1.543-1.027 2.626-1.027.927-.009 1.655.143 2.184.455.537.303.806.72.806 1.248 0 .399-.169.737-.507 1.014-.33.269-.715.433-1.157.494.442.035.85.182 1.222.442.381.26.572.615.572 1.066 0 .546-.269.992-.806 1.339-.529.347-1.248.52-2.158.52zm8.188-.156h-3.849v-6.28h3.758c.58 0 1.035.153 1.364.456.33.303.495.689.495 1.157 0 .364-.1.672-.3.923-.199.251-.45.42-.753.507.338.078.62.264.845.559.225.286.337.61.337.975 0 .503-.169.914-.507 1.235-.329.312-.793.468-1.39.468zm-.287-1.196c.243 0 .434-.06.572-.182a.679.679 0 00.209-.52.69.69 0 00-.209-.507c-.138-.139-.329-.208-.572-.208h-2.197v1.417h2.197zm-.038-2.613c.216 0 .385-.056.507-.17a.596.596 0 00.194-.454c0-.2-.064-.355-.194-.468-.122-.121-.29-.182-.508-.182h-2.157v1.274h2.158zm6.75 3.965c-.97 0-1.75-.316-2.34-.95-.59-.64-.884-1.425-.884-2.352 0-.927.295-1.707.884-2.34.59-.633 1.37-.95 2.34-.95.98 0 1.764.317 2.353.95.59.633.884 1.413.884 2.34 0 .936-.295 1.72-.884 2.353-.59.633-1.374.949-2.353.949zm0-1.21c.563 0 1.005-.198 1.326-.597.33-.407.494-.906.494-1.495 0-.58-.165-1.07-.494-1.47-.32-.406-.763-.61-1.326-.61-.555 0-.997.204-1.326.61-.32.4-.481.89-.481 1.47 0 .59.16 1.088.481 1.495.33.399.771.598 1.326.598zm3.968 2.653v-2.73a.983.983 0 00.663-.507c.156-.277.282-.806.377-1.586l.377-3.055h4.85v5.083h.688v2.795h-1.365v-1.6h-4.225v1.6h-1.365zm2.626-6.682l-.22 2.015c-.087.832-.365 1.456-.833 1.872h3.328v-3.887h-2.275zm8.31 5.239c-.952 0-1.732-.308-2.34-.923-.606-.624-.91-1.417-.91-2.38 0-.952.304-1.737.91-2.352.608-.624 1.388-.936 2.34-.936 1.05 0 1.851.373 2.406 1.118l-.897.832c-.347-.494-.828-.741-1.443-.741-.572 0-1.031.195-1.378.585-.347.381-.52.88-.52 1.495 0 .615.173 1.118.52 1.508.347.39.806.585 1.378.585.598 0 1.079-.247 1.443-.741l.897.832c-.555.745-1.356 1.118-2.405 1.118zm6.112-.156H69.16v-5.083h-1.794V32.89h4.966v1.196h-1.807v5.083zm6.772 0H73.45v-6.28h3.757c.581 0 1.036.153 1.365.456.33.303.494.689.494 1.157 0 .364-.1.672-.299.923a1.45 1.45 0 01-.754.507c.338.078.62.264.845.559.226.286.338.61.338.975 0 .503-.169.914-.507 1.235-.329.312-.793.468-1.39.468zm-.286-1.196c.243 0 .434-.06.572-.182a.679.679 0 00.208-.52.69.69 0 00-.208-.507c-.138-.139-.329-.208-.572-.208h-2.197v1.417h2.197zm-.039-2.613c.217 0 .386-.056.507-.17a.596.596 0 00.195-.454c0-.2-.065-.355-.195-.468-.12-.121-.29-.182-.507-.182h-2.158v1.274h2.158zm6.75 3.965c-.97 0-1.75-.316-2.34-.95-.588-.64-.883-1.425-.883-2.352 0-.927.294-1.707.884-2.34.59-.633 1.37-.95 2.34-.95.98 0 1.763.317 2.353.95.59.633.884 1.413.884 2.34 0 .936-.295 1.72-.884 2.353-.59.633-1.374.949-2.353.949zm0-1.21c.564 0 1.006-.198 1.327-.597.33-.407.494-.906.494-1.495 0-.58-.165-1.07-.494-1.47-.32-.406-.763-.61-1.326-.61-.555 0-.997.204-1.326.61-.32.4-.481.89-.481 1.47 0 .59.16 1.088.48 1.495.33.399.772.598 1.327.598zm13.834 1.054H95.84l-1.924-2.587-.871.897v1.69H91.68v-6.28h1.365v3.03l2.769-3.03h1.69l-2.613 2.848 2.665 3.432zm3.737.156c-.97 0-1.75-.316-2.34-.95-.59-.64-.884-1.425-.884-2.352 0-.927.295-1.707.884-2.34.59-.633 1.37-.95 2.34-.95.98 0 1.764.317 2.353.95.59.633.884 1.413.884 2.34 0 .936-.294 1.72-.884 2.353-.589.633-1.373.949-2.353.949zm0-1.21c.564 0 1.006-.198 1.326-.597.33-.407.494-.906.494-1.495 0-.58-.164-1.07-.494-1.47-.32-.406-.762-.61-1.326-.61-.554 0-.996.204-1.326.61-.32.4-.48.89-.48 1.47 0 .59.16 1.088.48 1.495.33.399.772.598 1.326.598zm7.127 1.054h-1.365v-5.083h-1.794V32.89h4.966v1.196h-1.807v5.083zm1.691.156v-1.118c.269 0 .481-.173.637-.52.165-.347.299-.927.403-1.742l.377-3.055h4.849v6.279h-1.365v-5.083h-2.275l-.221 2.015c-.121 1.127-.377 1.946-.767 2.457-.39.511-.936.767-1.638.767zm10.873 0c-.971 0-1.751-.316-2.34-.95-.59-.64-.884-1.425-.884-2.352 0-.927.294-1.707.884-2.34.589-.633 1.369-.95 2.34-.95.979 0 1.763.317 2.353.95.589.633.884 1.413.884 2.34 0 .936-.295 1.72-.884 2.353-.59.633-1.374.949-2.353.949zm0-1.21c.563 0 1.005-.198 1.326-.597.329-.407.494-.906.494-1.495 0-.58-.165-1.07-.494-1.47-.321-.406-.763-.61-1.326-.61-.555 0-.997.204-1.326.61-.321.4-.481.89-.481 1.47 0 .59.16 1.088.481 1.495.329.399.771.598 1.326.598zm8.466 1.054h-3.848v-6.28h3.757c.58 0 1.035.153 1.365.456.329.303.494.689.494 1.157 0 .364-.1.672-.299.923-.2.251-.451.42-.754.507.338.078.619.264.845.559.225.286.338.61.338.975 0 .503-.169.914-.507 1.235-.33.312-.793.468-1.391.468zm-.286-1.196c.242 0 .433-.06.572-.182a.681.681 0 00.208-.52c0-.2-.07-.368-.208-.507-.139-.139-.33-.208-.572-.208h-2.197v1.417h2.197zm-.039-2.613c.216 0 .385-.056.507-.17a.596.596 0 00.195-.454c0-.2-.065-.355-.195-.468-.122-.121-.291-.182-.507-.182h-2.158v1.274h2.158zm8.568 3.809h-1.313v-6.28h1.365v4.226l2.886-4.225h1.365v6.279h-1.365v-4.342l-2.938 4.342zm15.291 0h-1.716l-1.924-2.587-.871.897v1.69h-1.365v-6.28h1.365v3.03l2.769-3.03h1.69l-2.613 2.848 2.665 3.432zm3.737.156c-.971 0-1.751-.316-2.34-.95-.589-.64-.884-1.425-.884-2.352 0-.927.295-1.707.884-2.34.589-.633 1.369-.95 2.34-.95.979 0 1.764.317 2.353.95.589.633.884 1.413.884 2.34 0 .936-.295 1.72-.884 2.353-.589.633-1.374.949-2.353.949zm0-1.21c.563 0 1.005-.198 1.326-.597.329-.407.494-.906.494-1.495 0-.58-.165-1.07-.494-1.47-.321-.406-.763-.61-1.326-.61-.555 0-.997.204-1.326.61-.321.4-.481.89-.481 1.47 0 .59.16 1.088.481 1.495.329.399.771.598 1.326.598zm7.127 1.054h-1.365v-5.083h-1.794V32.89h4.966v1.196h-1.807v5.083zm5.824.156c-.954 0-1.742-.303-2.366-.91-.616-.615-.923-1.413-.923-2.392 0-.919.299-1.694.897-2.327.606-.641 1.369-.962 2.288-.962.927 0 1.672.32 2.236.962.572.641.858 1.46.858 2.457v.325h-4.849c.052.494.255.906.611 1.235.355.33.819.494 1.391.494.32 0 .641-.06.962-.182.329-.121.602-.29.819-.507l.624.897c-.633.607-1.482.91-2.548.91zm1.664-3.81a1.802 1.802 0 00-.481-1.156c-.295-.338-.724-.507-1.287-.507-.538 0-.958.169-1.261.507-.304.33-.473.715-.507 1.157h3.536zm2.023 3.81v-1.118c.269 0 .481-.173.637-.52.165-.347.299-.927.403-1.742l.377-3.055h4.849v6.279h-1.365v-5.083h-2.275l-.221 2.015c-.121 1.127-.377 1.946-.767 2.457-.39.511-.936.767-1.638.767zm8.039-6.435h1.365v2.275h2.223c.667 0 1.178.19 1.534.572.364.381.546.858.546 1.43 0 .563-.187 1.04-.559 1.43-.364.381-.871.572-1.521.572h-3.588v-6.28zm3.419 3.47h-2.054v1.613h2.054c.268 0 .476-.074.624-.221a.767.767 0 00.234-.585.767.767 0 00-.234-.585c-.148-.147-.356-.221-.624-.221zm4.966 2.809h-1.365v-6.28h1.365v2.47h2.886v-2.47h1.365v6.28h-1.365v-2.613h-2.886v2.613zm6.024-6.28h1.365v2.276h2.223c.667 0 1.178.19 1.534.572.364.381.546.858.546 1.43 0 .563-.187 1.04-.559 1.43-.364.381-.871.572-1.521.572h-3.588v-6.28zm3.419 3.472h-2.054v1.612h2.054c.268 0 .476-.074.624-.221a.767.767 0 00.234-.585.767.767 0 00-.234-.585c-.148-.147-.356-.221-.624-.221zm4.563 2.808h-1.365v-6.28h1.365v6.28zm7.267 0h-1.534l-1.625-2.314-1.638 2.314h-1.521l2.301-3.224-2.171-3.055h1.534l1.495 2.132 1.482-2.132h1.534l-2.171 3.055 2.314 3.224z" fill="#fff"/><path d="M199.013 12.456L188.755 0h-2.198v22.3h24.911V0h-2.198l-10.257 12.456zm-10.131 7.581V3.6l10.131 12.296L209.143 3.6v16.437h-20.261z" fill="url(#paint0_linear)"/><path d="M9.277 20.738c-2.676 0-4.938-1.02-6.753-3.058l-1.53 1.465A10.795 10.795 0 009.278 23c3.409 0 6.435-1.465 8.346-3.663 1.88-2.167 3.027-5.034 3.027-7.837s-1.147-5.67-3.027-7.868C15.712 1.465 12.686 0 9.277 0A10.795 10.795 0 00.995 3.855l1.529 1.433C4.404 3.25 6.634 2.23 9.277 2.23c2.517 0 4.683.892 6.435 2.676 1.752 1.816 2.644 4.014 2.644 6.594 0 2.549-.892 4.715-2.644 6.53-1.752 1.816-3.918 2.708-6.435 2.708zm-2.294-8.155h5.83V10.45h-5.83v2.134zm36.834-.127H27.92V.35h-2.326v22.3h2.326v-7.932h15.896v7.932h2.325V.35h-2.325v12.106zM51.23.35v22.3h18.476v-2.262H53.555v-5.734h12.01L55.339 2.58h14.367V.35H51.229zm2.325 3.313l7.486 8.856h-7.486V3.663zM73.52.35l9.843 12.488H74.54v9.812h2.326V15.1h8.091c2.262 0 4.078-.701 5.447-2.103 1.338-1.37 2.007-3.122 2.007-5.192 0-2.07-.668-3.855-2.038-5.288C89.002 1.083 87.122.35 84.797.35H73.52zm4.619 2.23h6.817c1.434 0 2.676.478 3.664 1.466.987.987 1.497 2.261 1.497 3.759 0 2.707-1.625 4.523-3.95 4.937L78.139 2.58zm36.726.032V.35H96.867v22.3h2.325V2.612h15.673zm7.107 16.278V.35h-2.326v22.3h20.293V.35h-2.199l-15.768 18.54zm1.593 1.498L137.613 3.95v16.438h-14.048zm21.164 2.262h2.708l7.486-9.62c-3.695-.606-6.307-2.486-6.307-5.576 0-1.497.541-2.707 1.656-3.568 1.083-.86 2.453-1.306 4.078-1.306h8.187v17.808h-4.811l-1.72 2.262h8.856V.35h-10.544c-2.612 0-4.587.67-5.957 2.007-1.37 1.338-2.071 3.027-2.071 5.097 0 3.218 1.657 5.48 5.001 6.754l-6.562 8.442zm37.095-10.067v-2.23h-11.85v2.23h11.85z" fill="#fff"/><defs><linearGradient id="paint0_linear" x1="186.557" y1="0" x2="208.72" y2="24.759" gradientUnits="userSpaceOnUse"><stop stop-color="#E62817"/><stop offset="1" stop-color="#F26118"/></linearGradient></defs></svg>