<svg width="28" height="28" fill="none" xmlns="http://www.w3.org/2000/svg"><path d="M27.07 25.495l-6.442-6.442a11.253 11.253 0 002.56-7.159c0-6.234-5.06-11.292-11.293-11.292C5.655.602.602 5.66.602 11.895c0 6.234 5.053 11.293 11.293 11.293 2.718 0 5.206-.957 7.153-2.554l6.442 6.436a1.116 1.116 0 001.58 0 1.11 1.11 0 000-1.575zM11.895 20.94c-4.993 0-9.051-4.058-9.051-9.046 0-4.987 4.058-9.05 9.05-9.05 4.988 0 9.051 4.063 9.051 9.05 0 4.988-4.063 9.046-9.05 9.046z" fill="#929292" opacity=".5"/></svg>