<svg width="28" height="28" fill="none" xmlns="http://www.w3.org/2000/svg"><path d="M14 0a4.91 4.91 0 00-4.905 4.905v9.64A4.91 4.91 0 0014 19.45c2.705 0 4.905-2.185 4.905-4.871V4.905A4.91 4.91 0 0014 0zm2.861 14.579c0 1.558-1.284 2.827-2.86 2.827a2.864 2.864 0 01-2.862-2.861v-9.64A2.864 2.864 0 0114 2.044a2.864 2.864 0 012.861 2.861v9.674zm-1.839 7.801h-2.044v4.598h2.044v-4.599z" fill="#929292"/><path d="M16.691 25.956h-5.382a1.022 1.022 0 100 2.044h5.382a1.022 1.022 0 100-2.044zm5.041-13.114c-.564 0-1.021.458-1.021 1.022v.818c0 3.7-3.011 6.71-6.711 6.71s-6.71-3.01-6.71-6.71v-.818a1.022 1.022 0 10-2.044 0v.818c0 4.827 3.927 8.754 8.754 8.754s8.754-3.927 8.754-8.754v-.818c0-.564-.457-1.022-1.022-1.022z" fill="#929292"/></svg>