<svg width="25" height="25" fill="none" xmlns="http://www.w3.org/2000/svg"><path d="M24.583 0H5.833a.417.417 0 00-.416.417v6.25h.833V.833h17.916V23.75a.41.41 0 01-.383.417c-.036 0-.072-.003-.108-.004-.073-.002-.147-.004-.22-.011-.006 0-.012 0-.018-.003a2.92 2.92 0 01-2.586-2.583l-.003-.018a2.907 2.907 0 01-.015-.298v-.833a.417.417 0 00-.416-.417H6.25v-7.5h-.833V20H2.083a.417.417 0 00-.416.417v.833A3.754 3.754 0 005.417 25h18.375A1.24 1.24 0 0025 23.75V.417A.417.417 0 0024.583 0zM5.417 24.167A2.92 2.92 0 012.5 21.25v-.417H20v.417c0 .137.008.275.024.411.003.037.01.072.015.107.014.101.03.201.053.3l.026.104a3.8 3.8 0 00.245.683l.03.06c.052.106.109.209.171.309l.025.041c.068.107.14.21.22.309l.013.018a3.854 3.854 0 00.57.576l-15.975-.001z" fill="#252525"/><path d="M13.75 11.667c.11 0 .216-.044.294-.122l1.667-1.667a.417.417 0 000-.59l-1.667-1.666a.417.417 0 00-.294-.122H2.083a2.083 2.083 0 000 4.167H13.75zm-.108-3.269l1.185 1.185-1.185 1.185-.296-1.185.296-1.185zM3.333 8.333H12.8l-.208.834H4.167V10h8.425l.208.833H3.333v-2.5zm-2.5 1.25c0-.69.56-1.25 1.25-1.25H2.5v2.5h-.417c-.69 0-1.25-.56-1.25-1.25zm8.75 8.334h12.5c.23 0 .417-.187.417-.417V5a.417.417 0 00-.711-.295l-12.5 12.5a.417.417 0 00.294.712zM21.666 6.006v1.077h-.833v.834h.834v.833h-.834v.833h.834v.834h-.834v.833h.834v.833h-.834v.834h.834v.833h-.834v.833h.834v.834h-.834v.833h.834v.833h-.834v-.833H20v.833h-.834v-.833h-.833v.833H17.5v-.833h-.834v.833h-.833v-.833H15v.833h-.834v-.833h-.833v.833H12.5v-.833h-.834v.833H10.59L21.666 6.006z" fill="#252525"/><path d="M15.619 15.416h3.964c.23 0 .417-.186.417-.416v-3.965a.417.417 0 00-.711-.294l-3.965 3.964a.417.417 0 00.295.711zm3.548-3.375v2.542h-2.542l2.542-2.542zm0-9.541h-8.334v.833h8.334V2.5zm1.249 1.667H9.583V5h10.833v-.833zM9.583 12.916h-2.5v.834h2.5v-.834zm-.833 1.668H7.083v.833H8.75v-.833z" fill="#252525"/></svg>