<svg width="14" height="10" fill="none" xmlns="http://www.w3.org/2000/svg"><path d="M13.478 6.572V5.07c0-.571-.46-1.03-1.03-1.03l-.712-.112-1.219-1.836c-.017-.014-.031-.049-.049-.063a1.05 1.05 0 00-.84-.428H7.316V.96c0-.324-.241-.587-.54-.587H.54C.241.373 0 .636 0 .96v6.943c0 .333.27.586.586.586h.84c.19.665.793 1.138 1.521 1.138.729 0 1.331-.49 1.52-1.138h5.179c.19.665.792 1.138 1.52 1.138.73 0 1.332-.49 1.521-1.138h.729c.333 0 .585-.27.585-.586V7.16a.598.598 0 00-.522-.588zM2.946 8.836a.793.793 0 01-.792-.792c0-.428.365-.792.792-.792.445 0 .792.364.792.792a.793.793 0 01-.792.792zM8.4 3.987a.074.074 0 01-.075-.074V2.458c0-.04.032-.074.075-.074h1.256c.026 0 .05.011.06.031l.979 1.455c.032.048-.003.114-.06.114H8.4v.003zm2.765 4.849a.793.793 0 01-.791-.792c0-.428.364-.792.791-.792.445 0 .792.364.792.792a.805.805 0 01-.792.792z" fill="#000"/></svg>